<mxfile host="app.diagrams.net" agent="Mozilla/5.0 (Windows NT 10.0; Win64; x64) AppleWebKit/537.36 (KHTML, like Gecko) Chrome/131.0.0.0 Safari/537.36" version="25.0.1">
  <diagram name="Page-1" id="05MFi6CnXchHPfq0vYnN">
    <mxGraphModel dx="-4765" dy="2827" grid="1" gridSize="10" guides="1" tooltips="1" connect="1" arrows="1" fold="1" page="1" pageScale="1" pageWidth="850" pageHeight="1100" math="0" shadow="0">
      <root>
        <mxCell id="0" />
        <mxCell id="1" parent="0" />
        <mxCell id="pWjQ2jvJ6Y_HHa9xYU3Q-1" value="" style="rounded=1;whiteSpace=wrap;html=1;arcSize=8;" vertex="1" parent="1">
          <mxGeometry x="6280" y="-2010" width="1070" height="810" as="geometry" />
        </mxCell>
        <mxCell id="pWjQ2jvJ6Y_HHa9xYU3Q-2" value="" style="rounded=1;whiteSpace=wrap;html=1;arcSize=11;" vertex="1" parent="1">
          <mxGeometry x="6300" y="-1990" width="610" height="730" as="geometry" />
        </mxCell>
        <mxCell id="pWjQ2jvJ6Y_HHa9xYU3Q-3" value="&lt;p style=&quot;margin:0px;margin-top:4px;text-align:center;&quot;&gt;&lt;/p&gt;&lt;div style=&quot;height:2px;&quot;&gt;&lt;/div&gt;&lt;span style=&quot;font-weight: 700;&quot;&gt;&lt;div style=&quot;text-align: center;&quot;&gt;&lt;span style=&quot;background-color: initial;&quot;&gt;&amp;nbsp;&lt;i&gt;PowerUsingPart&lt;/i&gt;&lt;/span&gt;&lt;/div&gt;&lt;/span&gt;&lt;hr size=&quot;1&quot; style=&quot;border-style:solid;&quot;&gt;&lt;div style=&quot;height:2px;&quot;&gt;&lt;div style=&quot;height: 2px;&quot;&gt;&lt;span style=&quot;background-color: initial;&quot;&gt;&amp;nbsp;maxUsedPower: Float&lt;/span&gt;&lt;br&gt;&lt;/div&gt;&lt;/div&gt;" style="verticalAlign=top;align=left;overflow=fill;html=1;whiteSpace=wrap;" vertex="1" parent="1">
          <mxGeometry x="6485" y="-1699.5" width="140" height="52" as="geometry" />
        </mxCell>
        <mxCell id="pWjQ2jvJ6Y_HHa9xYU3Q-6" value="&lt;p style=&quot;margin:0px;margin-top:4px;text-align:center;&quot;&gt;&lt;/p&gt;&lt;div style=&quot;height:2px;&quot;&gt;&lt;/div&gt;&lt;div style=&quot;text-align: center;&quot;&gt;&lt;span style=&quot;font-weight: 700; background-color: initial;&quot;&gt;&amp;nbsp;BMW4er&lt;/span&gt;&lt;span style=&quot;background-color: initial;&quot;&gt;&lt;b&gt;:&lt;/b&gt;ECar&lt;/span&gt;&lt;/div&gt;&lt;hr size=&quot;1&quot; style=&quot;border-style:solid;&quot;&gt;&lt;div style=&quot;height:2px;&quot;&gt;&lt;div style=&quot;height: 2px;&quot;&gt;&amp;nbsp;&lt;span style=&quot;background-color: initial;&quot;&gt;maker: BMW&lt;/span&gt;&lt;/div&gt;&lt;div style=&quot;height: 2px;&quot;&gt;&lt;div style=&quot;height: 2px;&quot;&gt;&lt;br&gt;&lt;/div&gt;&lt;div style=&quot;height: 2px;&quot;&gt;&lt;br&gt;&lt;/div&gt;&lt;div style=&quot;height: 2px;&quot;&gt;&lt;br&gt;&lt;/div&gt;&lt;div style=&quot;height: 2px;&quot;&gt;&lt;br&gt;&lt;/div&gt;&lt;div style=&quot;height: 2px;&quot;&gt;&lt;br&gt;&lt;/div&gt;&lt;div style=&quot;height: 2px;&quot;&gt;&lt;br&gt;&lt;/div&gt;&lt;div style=&quot;height: 2px;&quot;&gt;&amp;nbsp;protocol: EMS&lt;/div&gt;&lt;/div&gt;&lt;div style=&quot;height: 2px;&quot;&gt;&lt;br&gt;&lt;/div&gt;&lt;div style=&quot;height: 2px;&quot;&gt;&lt;br&gt;&lt;/div&gt;&lt;div style=&quot;height: 2px;&quot;&gt;&lt;br&gt;&lt;/div&gt;&lt;div style=&quot;height: 2px;&quot;&gt;&lt;br&gt;&lt;/div&gt;&lt;div style=&quot;height: 2px;&quot;&gt;&lt;br&gt;&lt;/div&gt;&lt;div style=&quot;height: 2px;&quot;&gt;&lt;br&gt;&lt;/div&gt;&lt;div style=&quot;height: 2px;&quot;&gt;&lt;br&gt;&lt;/div&gt;&lt;div style=&quot;height: 2px;&quot;&gt;&lt;br&gt;&lt;/div&gt;&lt;div style=&quot;height: 2px;&quot;&gt;&lt;br&gt;&lt;/div&gt;&lt;div style=&quot;height: 2px;&quot;&gt;&lt;br&gt;&lt;/div&gt;&lt;div style=&quot;height: 2px;&quot;&gt;&lt;br&gt;&lt;/div&gt;&lt;/div&gt;" style="verticalAlign=top;align=left;overflow=fill;html=1;whiteSpace=wrap;" vertex="1" parent="1">
          <mxGeometry x="6533" y="-1378" width="140" height="72" as="geometry" />
        </mxCell>
        <mxCell id="pWjQ2jvJ6Y_HHa9xYU3Q-7" value="&lt;p style=&quot;margin:0px;margin-top:4px;text-align:center;&quot;&gt;&lt;/p&gt;&lt;div style=&quot;height:2px;&quot;&gt;&lt;/div&gt;&lt;div style=&quot;text-align: center;&quot;&gt;&lt;span style=&quot;font-weight: 700; background-color: initial;&quot;&gt;&amp;nbsp;&lt;/span&gt;&lt;span style=&quot;background-color: initial; text-align: left;&quot;&gt;&lt;b&gt;eDrive50&lt;/b&gt;&lt;/span&gt;&lt;span style=&quot;background-color: initial;&quot;&gt;&lt;b&gt;:&lt;/b&gt;Engine&lt;/span&gt;&lt;/div&gt;&lt;hr size=&quot;1&quot; style=&quot;border-style:solid;&quot;&gt;&lt;div style=&quot;height:2px;&quot;&gt;&lt;div style=&quot;height: 2px;&quot;&gt;&amp;nbsp;&lt;span style=&quot;background-color: initial;&quot;&gt;maker: BMW&lt;/span&gt;&lt;/div&gt;&lt;div style=&quot;height: 2px;&quot;&gt;&lt;div style=&quot;height: 2px;&quot;&gt;&lt;br&gt;&lt;/div&gt;&lt;div style=&quot;height: 2px;&quot;&gt;&lt;br&gt;&lt;/div&gt;&lt;div style=&quot;height: 2px;&quot;&gt;&lt;br&gt;&lt;/div&gt;&lt;div style=&quot;height: 2px;&quot;&gt;&lt;br&gt;&lt;/div&gt;&lt;div style=&quot;height: 2px;&quot;&gt;&lt;br&gt;&lt;/div&gt;&lt;div style=&quot;height: 2px;&quot;&gt;&lt;br&gt;&lt;/div&gt;&lt;div style=&quot;height: 2px;&quot;&gt;&amp;nbsp;protocol: EMS&lt;/div&gt;&lt;/div&gt;&lt;div style=&quot;height: 2px;&quot;&gt;&lt;br&gt;&lt;/div&gt;&lt;div style=&quot;height: 2px;&quot;&gt;&lt;br&gt;&lt;/div&gt;&lt;div style=&quot;height: 2px;&quot;&gt;&lt;br&gt;&lt;/div&gt;&lt;div style=&quot;height: 2px;&quot;&gt;&lt;br&gt;&lt;/div&gt;&lt;div style=&quot;height: 2px;&quot;&gt;&lt;br&gt;&lt;/div&gt;&lt;div style=&quot;height: 2px;&quot;&gt;&lt;br&gt;&lt;/div&gt;&lt;div style=&quot;height: 2px;&quot;&gt;&lt;br&gt;&lt;/div&gt;&lt;div style=&quot;height: 2px;&quot;&gt;&lt;br&gt;&lt;/div&gt;&lt;div style=&quot;height: 2px;&quot;&gt;&lt;br&gt;&lt;/div&gt;&lt;div style=&quot;height: 2px;&quot;&gt;&lt;br&gt;&lt;/div&gt;&lt;div style=&quot;height: 2px;&quot;&gt;&lt;br&gt;&lt;/div&gt;&lt;div style=&quot;height: 2px;&quot;&gt;&lt;br&gt;&lt;/div&gt;&lt;div style=&quot;height: 2px;&quot;&gt;&lt;div style=&quot;height: 2px;&quot;&gt;&lt;span style=&quot;background-color: initial;&quot;&gt;&amp;nbsp;maxUsedPower: 60&lt;/span&gt;&lt;/div&gt;&lt;/div&gt;&lt;/div&gt;" style="verticalAlign=top;align=left;overflow=fill;html=1;whiteSpace=wrap;" vertex="1" parent="1">
          <mxGeometry x="6534" y="-1500" width="140" height="82" as="geometry" />
        </mxCell>
        <mxCell id="pWjQ2jvJ6Y_HHa9xYU3Q-8" value="&lt;p style=&quot;margin:0px;margin-top:4px;text-align:center;&quot;&gt;&lt;/p&gt;&lt;div style=&quot;height:2px;&quot;&gt;&lt;/div&gt;&lt;div style=&quot;text-align: center;&quot;&gt;&lt;span style=&quot;font-weight: 700; background-color: initial;&quot;&gt;&amp;nbsp;&lt;/span&gt;&lt;span style=&quot;font-weight: 700;&quot;&gt;E90&lt;/span&gt;&lt;span style=&quot;background-color: initial;&quot;&gt;&lt;b&gt;:&lt;/b&gt;MultiMedia&lt;/span&gt;&lt;/div&gt;&lt;hr size=&quot;1&quot; style=&quot;border-style:solid;&quot;&gt;&lt;div style=&quot;height:2px;&quot;&gt;&lt;div style=&quot;height: 2px;&quot;&gt;&amp;nbsp;&lt;span style=&quot;background-color: initial;&quot;&gt;maker: BMW&lt;/span&gt;&lt;/div&gt;&lt;div style=&quot;height: 2px;&quot;&gt;&lt;div style=&quot;height: 2px;&quot;&gt;&lt;br&gt;&lt;/div&gt;&lt;div style=&quot;height: 2px;&quot;&gt;&lt;br&gt;&lt;/div&gt;&lt;div style=&quot;height: 2px;&quot;&gt;&lt;br&gt;&lt;/div&gt;&lt;div style=&quot;height: 2px;&quot;&gt;&lt;br&gt;&lt;/div&gt;&lt;div style=&quot;height: 2px;&quot;&gt;&lt;br&gt;&lt;/div&gt;&lt;div style=&quot;height: 2px;&quot;&gt;&lt;br&gt;&lt;/div&gt;&lt;div style=&quot;height: 2px;&quot;&gt;&amp;nbsp;protocol: LIN&lt;/div&gt;&lt;/div&gt;&lt;div style=&quot;height: 2px;&quot;&gt;&lt;br&gt;&lt;/div&gt;&lt;div style=&quot;height: 2px;&quot;&gt;&lt;br&gt;&lt;/div&gt;&lt;div style=&quot;height: 2px;&quot;&gt;&lt;br&gt;&lt;/div&gt;&lt;div style=&quot;height: 2px;&quot;&gt;&lt;br&gt;&lt;/div&gt;&lt;div style=&quot;height: 2px;&quot;&gt;&lt;div style=&quot;height: 2px;&quot;&gt;&lt;br&gt;&lt;/div&gt;&lt;div style=&quot;height: 2px;&quot;&gt;&lt;br&gt;&lt;/div&gt;&lt;div style=&quot;height: 2px;&quot;&gt;&lt;br&gt;&lt;/div&gt;&lt;div style=&quot;height: 2px;&quot;&gt;&lt;br&gt;&lt;/div&gt;&lt;div style=&quot;height: 2px;&quot;&gt;&lt;br&gt;&lt;/div&gt;&lt;div style=&quot;height: 2px;&quot;&gt;&lt;br&gt;&lt;/div&gt;&lt;div style=&quot;height: 2px;&quot;&gt;&lt;br&gt;&lt;/div&gt;&lt;div style=&quot;height: 2px;&quot;&gt;&lt;br&gt;&lt;/div&gt;&lt;div style=&quot;height: 2px;&quot;&gt;&lt;div style=&quot;height: 2px;&quot;&gt;&lt;span style=&quot;background-color: initial;&quot;&gt;&amp;nbsp;maxUsedPower: 10&lt;/span&gt;&lt;/div&gt;&lt;/div&gt;&lt;/div&gt;&lt;/div&gt;" style="verticalAlign=top;align=left;overflow=fill;html=1;whiteSpace=wrap;" vertex="1" parent="1">
          <mxGeometry x="6325" y="-1386" width="140" height="89" as="geometry" />
        </mxCell>
        <mxCell id="pWjQ2jvJ6Y_HHa9xYU3Q-9" value="&lt;p style=&quot;margin:0px;margin-top:4px;text-align:center;&quot;&gt;&lt;/p&gt;&lt;div style=&quot;height:2px;&quot;&gt;&lt;/div&gt;&lt;div style=&quot;text-align: center;&quot;&gt;&lt;span style=&quot;font-weight: 700; background-color: initial;&quot;&gt;&amp;nbsp;BoughtInBP&lt;/span&gt;&lt;span style=&quot;background-color: initial;&quot;&gt;&lt;b&gt;:&lt;/b&gt;BatteryPack&lt;/span&gt;&lt;/div&gt;&lt;hr size=&quot;1&quot; style=&quot;border-style:solid;&quot;&gt;&lt;div style=&quot;height:2px;&quot;&gt;&lt;div style=&quot;height: 2px;&quot;&gt;&amp;nbsp;&lt;span style=&quot;background-color: initial;&quot;&gt;maker: ??&lt;/span&gt;&lt;/div&gt;&lt;div style=&quot;height: 2px;&quot;&gt;&lt;div style=&quot;height: 2px;&quot;&gt;&lt;br&gt;&lt;/div&gt;&lt;div style=&quot;height: 2px;&quot;&gt;&lt;br&gt;&lt;/div&gt;&lt;div style=&quot;height: 2px;&quot;&gt;&lt;br&gt;&lt;/div&gt;&lt;div style=&quot;height: 2px;&quot;&gt;&lt;br&gt;&lt;/div&gt;&lt;div style=&quot;height: 2px;&quot;&gt;&lt;br&gt;&lt;/div&gt;&lt;div style=&quot;height: 2px;&quot;&gt;&lt;br&gt;&lt;/div&gt;&lt;div style=&quot;height: 2px;&quot;&gt;&amp;nbsp;protocol: ??&lt;/div&gt;&lt;/div&gt;&lt;div style=&quot;height: 2px;&quot;&gt;&lt;br&gt;&lt;/div&gt;&lt;div style=&quot;height: 2px;&quot;&gt;&lt;br&gt;&lt;/div&gt;&lt;div style=&quot;height: 2px;&quot;&gt;&lt;br&gt;&lt;/div&gt;&lt;div style=&quot;height: 2px;&quot;&gt;&lt;br&gt;&lt;/div&gt;&lt;div style=&quot;height: 2px;&quot;&gt;&lt;br&gt;&lt;/div&gt;&lt;div style=&quot;height: 2px;&quot;&gt;&lt;br&gt;&lt;/div&gt;&lt;div style=&quot;height: 2px;&quot;&gt;&lt;br&gt;&lt;/div&gt;&lt;div style=&quot;height: 2px;&quot;&gt;&lt;br&gt;&lt;/div&gt;&lt;div style=&quot;height: 2px;&quot;&gt;&lt;br&gt;&lt;/div&gt;&lt;div style=&quot;height: 2px;&quot;&gt;&lt;br&gt;&lt;/div&gt;&lt;div style=&quot;height: 2px;&quot;&gt;&lt;br&gt;&lt;/div&gt;&lt;div style=&quot;height: 2px;&quot;&gt;&lt;br&gt;&lt;/div&gt;&lt;div style=&quot;height: 2px;&quot;&gt;&amp;nbsp;&lt;span style=&quot;background-color: initial;&quot;&gt;safetyLevel: ??&lt;/span&gt;&lt;br&gt;&lt;/div&gt;&lt;div style=&quot;height: 2px;&quot;&gt;&lt;br&gt;&lt;/div&gt;&lt;div style=&quot;height: 2px;&quot;&gt;&lt;br&gt;&lt;/div&gt;&lt;div style=&quot;height: 2px;&quot;&gt;&lt;br&gt;&lt;/div&gt;&lt;div style=&quot;height: 2px;&quot;&gt;&lt;br&gt;&lt;/div&gt;&lt;div style=&quot;height: 2px;&quot;&gt;&lt;br&gt;&lt;/div&gt;&lt;div style=&quot;height: 2px;&quot;&gt;&lt;br&gt;&lt;/div&gt;&lt;div style=&quot;height: 2px;&quot;&gt;&amp;nbsp;maxSuppliedPower: ??&lt;/div&gt;&lt;/div&gt;" style="verticalAlign=top;align=left;overflow=fill;html=1;whiteSpace=wrap;" vertex="1" parent="1">
          <mxGeometry x="6736" y="-1392" width="144" height="99" as="geometry" />
        </mxCell>
        <mxCell id="pWjQ2jvJ6Y_HHa9xYU3Q-10" value="" style="endArrow=diamondThin;endFill=1;endSize=24;html=1;rounded=0;entryX=0.5;entryY=0;entryDx=0;entryDy=0;exitX=0.5;exitY=1;exitDx=0;exitDy=0;" edge="1" parent="1" source="pWjQ2jvJ6Y_HHa9xYU3Q-7" target="pWjQ2jvJ6Y_HHa9xYU3Q-6">
          <mxGeometry width="160" relative="1" as="geometry">
            <mxPoint x="6434" y="-1292" as="sourcePoint" />
            <mxPoint x="6544" y="-1292" as="targetPoint" />
          </mxGeometry>
        </mxCell>
        <mxCell id="pWjQ2jvJ6Y_HHa9xYU3Q-11" value="1" style="edgeLabel;html=1;align=center;verticalAlign=middle;resizable=0;points=[];" connectable="0" vertex="1" parent="pWjQ2jvJ6Y_HHa9xYU3Q-10">
          <mxGeometry x="-0.7333" y="1" relative="1" as="geometry">
            <mxPoint x="5" y="3" as="offset" />
          </mxGeometry>
        </mxCell>
        <mxCell id="pWjQ2jvJ6Y_HHa9xYU3Q-12" value="" style="endArrow=diamondThin;endFill=1;endSize=24;html=1;rounded=0;entryX=0;entryY=0.5;entryDx=0;entryDy=0;exitX=1;exitY=0.5;exitDx=0;exitDy=0;" edge="1" parent="1" source="pWjQ2jvJ6Y_HHa9xYU3Q-8" target="pWjQ2jvJ6Y_HHa9xYU3Q-6">
          <mxGeometry width="160" relative="1" as="geometry">
            <mxPoint x="6614" y="-1418" as="sourcePoint" />
            <mxPoint x="6614" y="-1328" as="targetPoint" />
          </mxGeometry>
        </mxCell>
        <mxCell id="pWjQ2jvJ6Y_HHa9xYU3Q-13" value="1" style="edgeLabel;html=1;align=center;verticalAlign=middle;resizable=0;points=[];" connectable="0" vertex="1" parent="pWjQ2jvJ6Y_HHa9xYU3Q-12">
          <mxGeometry x="-0.7303" y="2" relative="1" as="geometry">
            <mxPoint x="3" y="-9" as="offset" />
          </mxGeometry>
        </mxCell>
        <mxCell id="pWjQ2jvJ6Y_HHa9xYU3Q-14" value="" style="endArrow=diamondThin;endFill=1;endSize=24;html=1;rounded=0;entryX=1;entryY=0.5;entryDx=0;entryDy=0;exitX=0;exitY=0.5;exitDx=0;exitDy=0;" edge="1" parent="1" source="pWjQ2jvJ6Y_HHa9xYU3Q-9" target="pWjQ2jvJ6Y_HHa9xYU3Q-6">
          <mxGeometry width="160" relative="1" as="geometry">
            <mxPoint x="6614" y="-1167" as="sourcePoint" />
            <mxPoint x="6614" y="-1256" as="targetPoint" />
          </mxGeometry>
        </mxCell>
        <mxCell id="pWjQ2jvJ6Y_HHa9xYU3Q-15" value="1" style="edgeLabel;html=1;align=center;verticalAlign=middle;resizable=0;points=[];" connectable="0" vertex="1" parent="pWjQ2jvJ6Y_HHa9xYU3Q-14">
          <mxGeometry x="-0.8453" y="-1" relative="1" as="geometry">
            <mxPoint x="-3" y="-8" as="offset" />
          </mxGeometry>
        </mxCell>
        <mxCell id="pWjQ2jvJ6Y_HHa9xYU3Q-72" style="edgeStyle=orthogonalEdgeStyle;rounded=0;orthogonalLoop=1;jettySize=auto;html=1;entryX=0.5;entryY=1;entryDx=0;entryDy=0;endArrow=block;endFill=0;endSize=16;exitX=0.5;exitY=0;exitDx=0;exitDy=0;" edge="1" parent="1" source="pWjQ2jvJ6Y_HHa9xYU3Q-16" target="pWjQ2jvJ6Y_HHa9xYU3Q-3">
          <mxGeometry relative="1" as="geometry">
            <Array as="points">
              <mxPoint x="6489" y="-1610" />
              <mxPoint x="6555" y="-1610" />
            </Array>
          </mxGeometry>
        </mxCell>
        <mxCell id="pWjQ2jvJ6Y_HHa9xYU3Q-16" value="&lt;span style=&quot;font-weight: 700; background-color: initial;&quot;&gt;&amp;nbsp;Engine&lt;/span&gt;" style="html=1;whiteSpace=wrap;" vertex="1" parent="1">
          <mxGeometry x="6444" y="-1589.5" width="90" height="50" as="geometry" />
        </mxCell>
        <mxCell id="pWjQ2jvJ6Y_HHa9xYU3Q-17" value="" style="rounded=1;whiteSpace=wrap;html=1;arcSize=15;" vertex="1" parent="1">
          <mxGeometry x="6928" y="-1990" width="402" height="730" as="geometry" />
        </mxCell>
        <mxCell id="pWjQ2jvJ6Y_HHa9xYU3Q-18" value="&lt;p style=&quot;margin:0px;margin-top:4px;text-align:center;&quot;&gt;&lt;/p&gt;&lt;div style=&quot;height:2px;&quot;&gt;&lt;/div&gt;&lt;span style=&quot;font-weight: 700;&quot;&gt;&lt;div style=&quot;text-align: center;&quot;&gt;&lt;span style=&quot;background-color: initial;&quot;&gt;&amp;nbsp;&lt;i&gt;PowerSupplyingPart&lt;/i&gt;&lt;/span&gt;&lt;/div&gt;&lt;/span&gt;&lt;hr size=&quot;1&quot; style=&quot;border-style:solid;&quot;&gt;&lt;div style=&quot;height:2px;&quot;&gt;&lt;div style=&quot;height: 2px;&quot;&gt;&lt;div style=&quot;height: 2px;&quot;&gt;&amp;nbsp;safetyLevel: Enum&lt;/div&gt;&lt;div style=&quot;height: 2px;&quot;&gt;&lt;br&gt;&lt;/div&gt;&lt;div style=&quot;height: 2px;&quot;&gt;&lt;br&gt;&lt;/div&gt;&lt;div style=&quot;height: 2px;&quot;&gt;&lt;br&gt;&lt;/div&gt;&lt;div style=&quot;height: 2px;&quot;&gt;&lt;br&gt;&lt;/div&gt;&lt;div style=&quot;height: 2px;&quot;&gt;&lt;br&gt;&lt;/div&gt;&lt;div style=&quot;height: 2px;&quot;&gt;&lt;br&gt;&lt;/div&gt;&lt;div style=&quot;height: 2px;&quot;&gt;&amp;nbsp;maxSuppliedPower: Float&lt;/div&gt;&lt;div style=&quot;height: 2px;&quot;&gt;&lt;br&gt;&lt;/div&gt;&lt;div style=&quot;height: 2px;&quot;&gt;&lt;br&gt;&lt;/div&gt;&lt;div style=&quot;height: 2px;&quot;&gt;&lt;br&gt;&lt;/div&gt;&lt;div style=&quot;height: 2px;&quot;&gt;&lt;br&gt;&lt;/div&gt;&lt;div style=&quot;height: 2px;&quot;&gt;&lt;br&gt;&lt;/div&gt;&lt;div style=&quot;height: 2px;&quot;&gt;&lt;br&gt;&lt;/div&gt;&lt;div style=&quot;height: 2px;&quot;&gt;&amp;nbsp;rawMaterial: String&lt;/div&gt;&lt;/div&gt;&lt;/div&gt;" style="verticalAlign=top;align=left;overflow=fill;html=1;whiteSpace=wrap;" vertex="1" parent="1">
          <mxGeometry x="7120" y="-1780" width="150" height="80" as="geometry" />
        </mxCell>
        <mxCell id="pWjQ2jvJ6Y_HHa9xYU3Q-19" value="" style="endArrow=diamondThin;endFill=1;endSize=24;html=1;rounded=0;entryX=1;entryY=0.5;entryDx=0;entryDy=0;exitX=0;exitY=0.5;exitDx=0;exitDy=0;" edge="1" parent="1" source="pWjQ2jvJ6Y_HHa9xYU3Q-29" target="pWjQ2jvJ6Y_HHa9xYU3Q-30">
          <mxGeometry width="160" relative="1" as="geometry">
            <mxPoint x="7285" y="-1485" as="sourcePoint" />
            <mxPoint x="7185" y="-1485" as="targetPoint" />
          </mxGeometry>
        </mxCell>
        <mxCell id="pWjQ2jvJ6Y_HHa9xYU3Q-20" value="*" style="edgeLabel;html=1;align=center;verticalAlign=middle;resizable=0;points=[];fontSize=18;" connectable="0" vertex="1" parent="pWjQ2jvJ6Y_HHa9xYU3Q-19">
          <mxGeometry x="-0.7948" y="1" relative="1" as="geometry">
            <mxPoint x="-4" y="-15" as="offset" />
          </mxGeometry>
        </mxCell>
        <mxCell id="pWjQ2jvJ6Y_HHa9xYU3Q-21" value="" style="endArrow=block;endSize=16;endFill=0;html=1;rounded=0;entryX=0.5;entryY=1;entryDx=0;entryDy=0;exitX=0.5;exitY=0;exitDx=0;exitDy=0;" edge="1" parent="1" source="pWjQ2jvJ6Y_HHa9xYU3Q-30" target="pWjQ2jvJ6Y_HHa9xYU3Q-18">
          <mxGeometry width="160" relative="1" as="geometry">
            <mxPoint x="7115" y="-1523" as="sourcePoint" />
            <mxPoint x="6665" y="-1631" as="targetPoint" />
            <Array as="points">
              <mxPoint x="7100" y="-1670.5" />
              <mxPoint x="7195" y="-1669.5" />
            </Array>
          </mxGeometry>
        </mxCell>
        <mxCell id="pWjQ2jvJ6Y_HHa9xYU3Q-22" value="" style="endArrow=block;endSize=16;endFill=0;html=1;rounded=0;entryX=0.5;entryY=1;entryDx=0;entryDy=0;exitX=0.5;exitY=0;exitDx=0;exitDy=0;" edge="1" parent="1" source="pWjQ2jvJ6Y_HHa9xYU3Q-29" target="pWjQ2jvJ6Y_HHa9xYU3Q-18">
          <mxGeometry width="160" relative="1" as="geometry">
            <mxPoint x="7285" y="-1509" as="sourcePoint" />
            <mxPoint x="6665" y="-1631" as="targetPoint" />
            <Array as="points">
              <mxPoint x="7270" y="-1670.5" />
              <mxPoint x="7195" y="-1669.5" />
            </Array>
          </mxGeometry>
        </mxCell>
        <mxCell id="pWjQ2jvJ6Y_HHa9xYU3Q-23" value="&lt;p style=&quot;margin:0px;margin-top:4px;text-align:center;&quot;&gt;&lt;/p&gt;&lt;div style=&quot;height:2px;&quot;&gt;&lt;/div&gt;&lt;div style=&quot;text-align: center;&quot;&gt;&lt;span style=&quot;font-weight: 700; background-color: initial;&quot;&gt;&amp;nbsp;HV-AX48&lt;/span&gt;&lt;span style=&quot;background-color: initial;&quot;&gt;&lt;b&gt;:&lt;/b&gt;Battery&lt;/span&gt;&lt;/div&gt;&lt;hr size=&quot;1&quot; style=&quot;border-style:solid;&quot;&gt;&lt;div style=&quot;height:2px;&quot;&gt;&lt;div style=&quot;height: 2px;&quot;&gt;&amp;nbsp;&lt;span style=&quot;background-color: initial;&quot;&gt;maker: BOSCH&lt;/span&gt;&lt;/div&gt;&lt;div style=&quot;height: 2px;&quot;&gt;&lt;br&gt;&lt;/div&gt;&lt;div style=&quot;height: 2px;&quot;&gt;&lt;br&gt;&lt;/div&gt;&lt;div style=&quot;height: 2px;&quot;&gt;&lt;br&gt;&lt;/div&gt;&lt;div style=&quot;height: 2px;&quot;&gt;&lt;br&gt;&lt;/div&gt;&lt;div style=&quot;height: 2px;&quot;&gt;&lt;br&gt;&lt;/div&gt;&lt;div style=&quot;height: 2px;&quot;&gt;&lt;div style=&quot;height: 2px;&quot;&gt;&lt;br&gt;&lt;/div&gt;&lt;div style=&quot;height: 2px;&quot;&gt;&lt;br&gt;&lt;/div&gt;&lt;div style=&quot;height: 2px;&quot;&gt;&amp;nbsp;maxSuppliedPower: 48&lt;/div&gt;&lt;div style=&quot;height: 2px;&quot;&gt;&lt;br&gt;&lt;/div&gt;&lt;div style=&quot;height: 2px;&quot;&gt;&lt;br&gt;&lt;/div&gt;&lt;div style=&quot;height: 2px;&quot;&gt;&lt;br&gt;&lt;/div&gt;&lt;div style=&quot;height: 2px;&quot;&gt;&lt;br&gt;&lt;/div&gt;&lt;div style=&quot;height: 2px;&quot;&gt;&lt;br&gt;&lt;/div&gt;&lt;div style=&quot;height: 2px;&quot;&gt;&lt;br&gt;&lt;/div&gt;&lt;div style=&quot;height: 2px;&quot;&gt;&lt;br&gt;&lt;/div&gt;&lt;div style=&quot;height: 2px;&quot;&gt;&lt;div style=&quot;height: 2px;&quot;&gt;&amp;nbsp;safetyLevel: ASIL_C&lt;/div&gt;&lt;div style=&quot;height: 2px;&quot;&gt;&lt;br&gt;&lt;/div&gt;&lt;div style=&quot;height: 2px;&quot;&gt;&lt;br&gt;&lt;/div&gt;&lt;div style=&quot;height: 2px;&quot;&gt;&lt;br&gt;&lt;/div&gt;&lt;div style=&quot;height: 2px;&quot;&gt;&lt;br&gt;&lt;/div&gt;&lt;div style=&quot;height: 2px;&quot;&gt;&lt;br&gt;&lt;/div&gt;&lt;div style=&quot;height: 2px;&quot;&gt;&lt;br&gt;&lt;/div&gt;&lt;div style=&quot;height: 2px;&quot;&gt;&lt;br&gt;&lt;/div&gt;&lt;div style=&quot;height: 2px;&quot;&gt;&amp;nbsp;rawMaterial: Lithium&lt;/div&gt;&lt;/div&gt;&lt;/div&gt;&lt;/div&gt;" style="verticalAlign=top;align=left;overflow=fill;html=1;whiteSpace=wrap;" vertex="1" parent="1">
          <mxGeometry x="7169.5" y="-1418" width="146" height="108" as="geometry" />
        </mxCell>
        <mxCell id="pWjQ2jvJ6Y_HHa9xYU3Q-24" value="&lt;p style=&quot;margin:0px;margin-top:4px;text-align:center;&quot;&gt;&lt;/p&gt;&lt;div style=&quot;height:2px;&quot;&gt;&lt;/div&gt;&lt;div style=&quot;text-align: center;&quot;&gt;&lt;span style=&quot;font-weight: 700; background-color: initial;&quot;&gt;&amp;nbsp;BP-XLi-Sports&lt;/span&gt;&lt;span style=&quot;background-color: initial;&quot;&gt;&lt;b&gt;:&lt;/b&gt;BatteryPack&lt;/span&gt;&lt;/div&gt;&lt;hr size=&quot;1&quot; style=&quot;border-style:solid;&quot;&gt;&lt;div style=&quot;height:2px;&quot;&gt;&lt;div style=&quot;height: 2px;&quot;&gt;&amp;nbsp;&lt;span style=&quot;background-color: initial;&quot;&gt;maker: BOSCH&lt;/span&gt;&lt;/div&gt;&lt;div style=&quot;height: 2px;&quot;&gt;&lt;div style=&quot;height: 2px;&quot;&gt;&lt;br&gt;&lt;/div&gt;&lt;div style=&quot;height: 2px;&quot;&gt;&lt;br&gt;&lt;/div&gt;&lt;div style=&quot;height: 2px;&quot;&gt;&lt;br&gt;&lt;/div&gt;&lt;div style=&quot;height: 2px;&quot;&gt;&lt;br&gt;&lt;/div&gt;&lt;div style=&quot;height: 2px;&quot;&gt;&lt;br&gt;&lt;/div&gt;&lt;div style=&quot;height: 2px;&quot;&gt;&lt;br&gt;&lt;/div&gt;&lt;div style=&quot;height: 2px;&quot;&gt;&amp;nbsp;protocol: BMS&lt;/div&gt;&lt;/div&gt;&lt;div style=&quot;height: 2px;&quot;&gt;&lt;br&gt;&lt;/div&gt;&lt;div style=&quot;height: 2px;&quot;&gt;&lt;br&gt;&lt;/div&gt;&lt;div style=&quot;height: 2px;&quot;&gt;&lt;br&gt;&lt;/div&gt;&lt;div style=&quot;height: 2px;&quot;&gt;&lt;br&gt;&lt;/div&gt;&lt;div style=&quot;height: 2px;&quot;&gt;&lt;br&gt;&lt;/div&gt;&lt;div style=&quot;height: 2px;&quot;&gt;&lt;br&gt;&lt;/div&gt;&lt;div style=&quot;height: 2px;&quot;&gt;&lt;br&gt;&lt;/div&gt;&lt;div style=&quot;height: 2px;&quot;&gt;&lt;br&gt;&lt;/div&gt;&lt;div style=&quot;height: 2px;&quot;&gt;&lt;br&gt;&lt;/div&gt;&lt;div style=&quot;height: 2px;&quot;&gt;&lt;br&gt;&lt;/div&gt;&lt;div style=&quot;height: 2px;&quot;&gt;&lt;br&gt;&lt;/div&gt;&lt;div style=&quot;height: 2px;&quot;&gt;&lt;br&gt;&lt;/div&gt;&lt;div style=&quot;height: 2px;&quot;&gt;&amp;nbsp;&lt;span style=&quot;background-color: initial;&quot;&gt;safetyLevel: ASIL_C&lt;/span&gt;&lt;br&gt;&lt;/div&gt;&lt;div style=&quot;height: 2px;&quot;&gt;&lt;br&gt;&lt;/div&gt;&lt;div style=&quot;height: 2px;&quot;&gt;&lt;br&gt;&lt;/div&gt;&lt;div style=&quot;height: 2px;&quot;&gt;&lt;br&gt;&lt;/div&gt;&lt;div style=&quot;height: 2px;&quot;&gt;&lt;br&gt;&lt;/div&gt;&lt;div style=&quot;height: 2px;&quot;&gt;&lt;br&gt;&lt;/div&gt;&lt;div style=&quot;height: 2px;&quot;&gt;&lt;br&gt;&lt;/div&gt;&lt;div style=&quot;height: 2px;&quot;&gt;&amp;nbsp;maxSuppliedPower: 96&lt;/div&gt;&lt;div style=&quot;height: 2px;&quot;&gt;&lt;br&gt;&lt;/div&gt;&lt;div style=&quot;height: 2px;&quot;&gt;&lt;br&gt;&lt;/div&gt;&lt;div style=&quot;height: 2px;&quot;&gt;&lt;br&gt;&lt;/div&gt;&lt;div style=&quot;height: 2px;&quot;&gt;&lt;br&gt;&lt;/div&gt;&lt;div style=&quot;height: 2px;&quot;&gt;&lt;br&gt;&lt;/div&gt;&lt;div style=&quot;height: 2px;&quot;&gt;&lt;br&gt;&lt;/div&gt;&lt;div style=&quot;height: 2px;&quot;&gt;&amp;nbsp;rawMaterial: Lithium&lt;/div&gt;&lt;/div&gt;" style="verticalAlign=top;align=left;overflow=fill;html=1;whiteSpace=wrap;" vertex="1" parent="1">
          <mxGeometry x="6950" y="-1382" width="180" height="105" as="geometry" />
        </mxCell>
        <mxCell id="pWjQ2jvJ6Y_HHa9xYU3Q-25" value="" style="endArrow=diamondThin;endFill=1;endSize=24;html=1;rounded=0;entryX=0.5;entryY=1;entryDx=0;entryDy=0;exitX=0.5;exitY=0;exitDx=0;exitDy=0;" edge="1" parent="1" source="pWjQ2jvJ6Y_HHa9xYU3Q-24" target="pWjQ2jvJ6Y_HHa9xYU3Q-33">
          <mxGeometry width="160" relative="1" as="geometry">
            <mxPoint x="6834" y="-1314" as="sourcePoint" />
            <mxPoint x="6961" y="-1449" as="targetPoint" />
          </mxGeometry>
        </mxCell>
        <mxCell id="pWjQ2jvJ6Y_HHa9xYU3Q-26" value="1" style="edgeLabel;html=1;align=center;verticalAlign=middle;resizable=0;points=[];" connectable="0" vertex="1" parent="pWjQ2jvJ6Y_HHa9xYU3Q-25">
          <mxGeometry x="-0.8453" y="-1" relative="1" as="geometry">
            <mxPoint x="-6" y="-7" as="offset" />
          </mxGeometry>
        </mxCell>
        <mxCell id="pWjQ2jvJ6Y_HHa9xYU3Q-27" value="" style="endArrow=diamondThin;endFill=1;endSize=24;html=1;rounded=0;entryX=1;entryY=0.25;entryDx=0;entryDy=0;exitX=-0.007;exitY=0.572;exitDx=0;exitDy=0;exitPerimeter=0;" edge="1" parent="1" source="pWjQ2jvJ6Y_HHa9xYU3Q-23" target="pWjQ2jvJ6Y_HHa9xYU3Q-24">
          <mxGeometry width="160" relative="1" as="geometry">
            <mxPoint x="7171" y="-1368" as="sourcePoint" />
            <mxPoint x="6834" y="-1403" as="targetPoint" />
            <Array as="points" />
          </mxGeometry>
        </mxCell>
        <mxCell id="pWjQ2jvJ6Y_HHa9xYU3Q-28" value="2" style="edgeLabel;html=1;align=center;verticalAlign=middle;resizable=0;points=[];" connectable="0" vertex="1" parent="pWjQ2jvJ6Y_HHa9xYU3Q-27">
          <mxGeometry x="-0.697" y="1" relative="1" as="geometry">
            <mxPoint x="-5" y="-13" as="offset" />
          </mxGeometry>
        </mxCell>
        <mxCell id="pWjQ2jvJ6Y_HHa9xYU3Q-29" value="&lt;span style=&quot;font-weight: 700; background-color: initial;&quot;&gt;Battery&lt;/span&gt;" style="html=1;whiteSpace=wrap;" vertex="1" parent="1">
          <mxGeometry x="7215.5" y="-1650" width="110" height="50" as="geometry" />
        </mxCell>
        <mxCell id="pWjQ2jvJ6Y_HHa9xYU3Q-30" value="&lt;span style=&quot;font-weight: 700; background-color: initial;&quot;&gt;BatteryPack&lt;/span&gt;" style="html=1;whiteSpace=wrap;" vertex="1" parent="1">
          <mxGeometry x="7045" y="-1650" width="110" height="50" as="geometry" />
        </mxCell>
        <mxCell id="pWjQ2jvJ6Y_HHa9xYU3Q-31" value="Bosch" style="text;html=1;align=center;verticalAlign=middle;whiteSpace=wrap;rounded=0;fontStyle=1;fontSize=23;" vertex="1" parent="1">
          <mxGeometry x="7064" y="-1990" width="130" height="46" as="geometry" />
        </mxCell>
        <mxCell id="pWjQ2jvJ6Y_HHa9xYU3Q-32" value="V-SUM" style="text;html=1;align=center;verticalAlign=middle;whiteSpace=wrap;rounded=0;fontStyle=1;fontSize=23;horizontal=0;" vertex="1" parent="1">
          <mxGeometry x="6300" y="-1509" width="30" height="100" as="geometry" />
        </mxCell>
        <mxCell id="pWjQ2jvJ6Y_HHa9xYU3Q-33" value="&lt;p style=&quot;margin:0px;margin-top:4px;text-align:center;&quot;&gt;&lt;/p&gt;&lt;div style=&quot;height:2px;&quot;&gt;&lt;/div&gt;&lt;div style=&quot;text-align: center;&quot;&gt;&lt;span style=&quot;font-weight: 700; background-color: initial;&quot;&gt;&lt;i&gt;&amp;nbsp;&lt;/i&gt;EC&lt;/span&gt;&lt;span style=&quot;background-color: initial;&quot;&gt;&lt;b&gt;:&lt;/b&gt;ECar&lt;/span&gt;&lt;/div&gt;&lt;hr size=&quot;1&quot; style=&quot;border-style:solid;&quot;&gt;&lt;div style=&quot;height:2px;&quot;&gt;&lt;div style=&quot;height: 2px;&quot;&gt;&amp;nbsp;&lt;span style=&quot;background-color: initial;&quot;&gt;maker: ??&lt;/span&gt;&lt;/div&gt;&lt;div style=&quot;height: 2px;&quot;&gt;&lt;div style=&quot;height: 2px;&quot;&gt;&lt;br&gt;&lt;/div&gt;&lt;div style=&quot;height: 2px;&quot;&gt;&lt;br&gt;&lt;/div&gt;&lt;div style=&quot;height: 2px;&quot;&gt;&lt;br&gt;&lt;/div&gt;&lt;div style=&quot;height: 2px;&quot;&gt;&lt;br&gt;&lt;/div&gt;&lt;div style=&quot;height: 2px;&quot;&gt;&lt;br&gt;&lt;/div&gt;&lt;div style=&quot;height: 2px;&quot;&gt;&lt;br&gt;&lt;/div&gt;&lt;div style=&quot;height: 2px;&quot;&gt;&amp;nbsp;protocol: ??&lt;/div&gt;&lt;/div&gt;&lt;div style=&quot;height: 2px;&quot;&gt;&lt;br&gt;&lt;/div&gt;&lt;div style=&quot;height: 2px;&quot;&gt;&lt;br&gt;&lt;/div&gt;&lt;div style=&quot;height: 2px;&quot;&gt;&lt;br&gt;&lt;/div&gt;&lt;div style=&quot;height: 2px;&quot;&gt;&lt;br&gt;&lt;/div&gt;&lt;div style=&quot;height: 2px;&quot;&gt;&lt;br&gt;&lt;/div&gt;&lt;div style=&quot;height: 2px;&quot;&gt;&lt;br&gt;&lt;/div&gt;&lt;div style=&quot;height: 2px;&quot;&gt;&lt;br&gt;&lt;/div&gt;&lt;div style=&quot;height: 2px;&quot;&gt;&lt;br&gt;&lt;/div&gt;&lt;div style=&quot;height: 2px;&quot;&gt;&lt;br&gt;&lt;/div&gt;&lt;div style=&quot;height: 2px;&quot;&gt;&lt;br&gt;&lt;/div&gt;&lt;/div&gt;" style="verticalAlign=top;align=left;overflow=fill;html=1;whiteSpace=wrap;" vertex="1" parent="1">
          <mxGeometry x="6970" y="-1500" width="140" height="72" as="geometry" />
        </mxCell>
        <mxCell id="pWjQ2jvJ6Y_HHa9xYU3Q-35" value="&lt;b&gt;ECar&lt;/b&gt;" style="html=1;whiteSpace=wrap;" vertex="1" parent="1">
          <mxGeometry x="6960" y="-1765" width="110" height="50" as="geometry" />
        </mxCell>
        <mxCell id="pWjQ2jvJ6Y_HHa9xYU3Q-36" value="&lt;p style=&quot;margin:0px;margin-top:4px;text-align:center;&quot;&gt;&lt;/p&gt;&lt;div style=&quot;height:2px;&quot;&gt;&lt;/div&gt;&lt;span style=&quot;font-weight: 700;&quot;&gt;&lt;div style=&quot;text-align: center;&quot;&gt;&lt;span style=&quot;background-color: initial;&quot;&gt;&amp;nbsp;&lt;i&gt;Product&lt;/i&gt;&lt;/span&gt;&lt;/div&gt;&lt;/span&gt;&lt;hr size=&quot;1&quot; style=&quot;border-style:solid;&quot;&gt;&lt;div style=&quot;height:2px;&quot;&gt;&lt;div style=&quot;height: 2px;&quot;&gt;&amp;nbsp;&lt;span style=&quot;background-color: initial;&quot;&gt;maker: String&lt;/span&gt;&lt;/div&gt;&lt;div style=&quot;height: 2px;&quot;&gt;&lt;div style=&quot;height: 2px;&quot;&gt;&lt;br&gt;&lt;/div&gt;&lt;div style=&quot;height: 2px;&quot;&gt;&lt;br&gt;&lt;/div&gt;&lt;div style=&quot;height: 2px;&quot;&gt;&lt;br&gt;&lt;/div&gt;&lt;div style=&quot;height: 2px;&quot;&gt;&lt;br&gt;&lt;/div&gt;&lt;div style=&quot;height: 2px;&quot;&gt;&lt;br&gt;&lt;/div&gt;&lt;div style=&quot;height: 2px;&quot;&gt;&lt;br&gt;&lt;/div&gt;&lt;div style=&quot;height: 2px;&quot;&gt;&amp;nbsp;protocol: String&lt;/div&gt;&lt;/div&gt;&lt;div style=&quot;height: 2px;&quot;&gt;&lt;br&gt;&lt;/div&gt;&lt;div style=&quot;height: 2px;&quot;&gt;&lt;br&gt;&lt;/div&gt;&lt;div style=&quot;height: 2px;&quot;&gt;&lt;br&gt;&lt;/div&gt;&lt;div style=&quot;height: 2px;&quot;&gt;&lt;br&gt;&lt;/div&gt;&lt;div style=&quot;height: 2px;&quot;&gt;&lt;br&gt;&lt;/div&gt;&lt;div style=&quot;height: 2px;&quot;&gt;&lt;br&gt;&lt;/div&gt;&lt;div style=&quot;height: 2px;&quot;&gt;&lt;br&gt;&lt;/div&gt;&lt;div style=&quot;height: 2px;&quot;&gt;&lt;br&gt;&lt;/div&gt;&lt;div style=&quot;height: 2px;&quot;&gt;&lt;br&gt;&lt;/div&gt;&lt;div style=&quot;height: 2px;&quot;&gt;&lt;br&gt;&lt;/div&gt;&lt;div style=&quot;height: 2px;&quot;&gt;&lt;br&gt;&lt;/div&gt;&lt;/div&gt;" style="verticalAlign=top;align=left;overflow=fill;html=1;whiteSpace=wrap;" vertex="1" parent="1">
          <mxGeometry x="7045" y="-1919.5" width="140" height="63" as="geometry" />
        </mxCell>
        <mxCell id="pWjQ2jvJ6Y_HHa9xYU3Q-37" value="" style="endArrow=block;endSize=16;endFill=0;html=1;rounded=0;entryX=0.5;entryY=1;entryDx=0;entryDy=0;exitX=0.5;exitY=0;exitDx=0;exitDy=0;" edge="1" parent="1" source="pWjQ2jvJ6Y_HHa9xYU3Q-35" target="pWjQ2jvJ6Y_HHa9xYU3Q-36">
          <mxGeometry width="160" relative="1" as="geometry">
            <mxPoint x="6915" y="-1728.33" as="sourcePoint" />
            <mxPoint x="7075" y="-1728.33" as="targetPoint" />
            <Array as="points">
              <mxPoint x="7015" y="-1822" />
              <mxPoint x="7115" y="-1822.5" />
            </Array>
          </mxGeometry>
        </mxCell>
        <mxCell id="pWjQ2jvJ6Y_HHa9xYU3Q-38" value="" style="endArrow=block;endSize=16;endFill=0;html=1;rounded=0;exitX=0.5;exitY=0;exitDx=0;exitDy=0;entryX=0.5;entryY=1;entryDx=0;entryDy=0;" edge="1" parent="1" source="pWjQ2jvJ6Y_HHa9xYU3Q-18" target="pWjQ2jvJ6Y_HHa9xYU3Q-36">
          <mxGeometry width="160" relative="1" as="geometry">
            <mxPoint x="7185" y="-1808" as="sourcePoint" />
            <mxPoint x="7295" y="-1740.67" as="targetPoint" />
            <Array as="points">
              <mxPoint x="7195" y="-1822" />
              <mxPoint x="7115" y="-1822.5" />
            </Array>
          </mxGeometry>
        </mxCell>
        <mxCell id="pWjQ2jvJ6Y_HHa9xYU3Q-39" value="" style="endArrow=diamondThin;endFill=1;endSize=24;html=1;rounded=0;entryX=1;entryY=0.5;entryDx=0;entryDy=0;exitX=0;exitY=0.5;exitDx=0;exitDy=0;" edge="1" parent="1" source="pWjQ2jvJ6Y_HHa9xYU3Q-18" target="pWjQ2jvJ6Y_HHa9xYU3Q-35">
          <mxGeometry width="160" relative="1" as="geometry">
            <mxPoint x="7130" y="-1783" as="sourcePoint" />
            <mxPoint x="6825" y="-1742.5" as="targetPoint" />
          </mxGeometry>
        </mxCell>
        <mxCell id="pWjQ2jvJ6Y_HHa9xYU3Q-40" value="&lt;font style=&quot;font-size: 15px;&quot;&gt;*&lt;/font&gt;" style="edgeLabel;html=1;align=center;verticalAlign=middle;resizable=0;points=[];" connectable="0" vertex="1" parent="pWjQ2jvJ6Y_HHa9xYU3Q-39">
          <mxGeometry x="-0.8074" relative="1" as="geometry">
            <mxPoint x="-4" y="-12" as="offset" />
          </mxGeometry>
        </mxCell>
        <mxCell id="pWjQ2jvJ6Y_HHa9xYU3Q-42" value="" style="shape=image;aspect=fixed;image=data:image/png,iVBORw0KGgoAAAANSUhEUgAAAgAAAAIACAYAAAD0eNT6AAAAAXNSR0IArs4c6QAAAARnQU1BAACxjwv8YQUAAAAJcEhZcwAADsMAAA7DAcdvqGQAABChSURBVHhe7d3JdhNJGoZhCahbwRu8oxjM9WMz7Vwb160UoE7ZIdoIy9aQQ0R+z3NOH0ls2iVL+b8RmZIXAAAAAAAAAAAAAAAAAAAAAAAAAAAAAAAAAAAAAAAAAAAAAAAAAAAAAAAAAAAAAAAAAAAAAAAAAAAAAAAAAHC4ZbkFZuTb2fnHcrcXr2+uP5S7wEwIAGjMnsP9otz25bLc7iQSoC0CACq2Y9j3Pdz78kckiAKolwCASjQ27PclCqBSAgAm8sDAb33Y7+tXFIgBmI4AgBFtDf2Ugf+Y33YIBAGMRwDAwAz9g9gdgJEIABiAod8LMQADEgDQo3uD39Dv120MCAHojwCAE1ntj8quAPREAMCRrPYnZ1cATiAA4EAGf3WEABxBAMCeDP7qCQE4gACAJxj8zRECsAcBADsY/M0TAvAIAQBbDP7ZEQLwAAEAhcE/e0IA7hEAxDP44wgB6AgAopXhb/BnuhQBJBMARLLqp7AbQCwBQByrfh5gN4A4AoAYVv08wW4AUQQAEaz6OYDdACIIAGbNqp8jiQBmTwAwW1b9nOLnYvHpWXcjBJgrAcAsGf70yG4AsyQAmB3DnwGIAGZHADAb68H/s3tNP1ss3pd/gt6sFour7oC5EgLMhQBgFqz6GZHdAGZBANA8w58JiACaJwBomuHPhEQATRMANMvwpwIigGYJAJr09ez8snvxutiPya0vDvz75lqI0pxn5Raa8cXwpyLr1+I6SMtDaIYdAJry5ezV1bPF8l15CNVYf3Pgm5trYUoz7ADQjM8vX30y/KlVdzB9t36NlodQPTsANOHTy1efXyyXb8pDqNb31erLu3//eVseQrUEANUz/GnNj9Xq89t//7FbRdUEAFVbb6k+Xy6tpmjOj8Xq09ubf1wTQLUEANX6cnZ+tT6vWh5Cc1wYSM0EAFXyOX/mwvcEUCsBQHV8wx8z5BsDqY4AoCqGPzMmAqiKAKAahj8BRADVEABUwfAniAigCgKAyRn+BBIBTE4AMCnDn2AigEn5WwBMaiVCASbh4MtkrP7BLgDTEQBMwvAfXN9/n97vajgigEkIAEZn+PfqwUHf90Apv7OH+D32QwQwOgHA6HzN70l+G/hTD40HwkAQHEcAMDoBwKis/o/ya+jXPiS2gsDv+TAigFEJAEZj+B+kmaG/ixg4ighgNAKAURj+e7sd/HMbAvdiwGvgaSKAUQgARiEAHtX8an9fdgX2IgAYhQBgcIb/TrNc7e/LrsCjRACDEwAMyvB/UPTg3yYE/rRaLK7+vrn2fDAoAcCgBMBvDP5HCIE/2AVgUAKAwRj+v3Ew35PXzW+8bhiMPwYEw1qv+h3ED1Ceq9vn7fYfgEHYAWAQ6au49Tnc7s21MvhPs34d/eyOU91KJfmbIwUkgxAA9M4WrgN237ymvKbon1MA0C8H6gGU59QpAeiRHQB6lbpSs+U/jvXrq3uul91znXhKQFzSKzsAcLrL9We2HZyHt36Oy+fj7QbAiewA0JvQ1b9V2US83uA0dgDgeA7GEyrPvZ0AOJIdAHoRuBoz/CvhtQfHsQMAB/hvtfra3TgAV8ROABzHDgAnS1mBfV+tvrz795+35SGVWb8Ou0B78ddy+ab805yJUE5mBwD2sF75G/51Ww/Ebvh/Lw+BJwgATpKy+u8Gy3/lLhULOh1wUd57cDQBAE+z3doQ1wTAflwDwNFCVv+Gf6O8PuFxdgBgNwfXhtkJgMcJAHiY4T8DIgB2EwAcZc7bqz8XiyvDfz7Wv8vud/qpPJwbFwNyNAEAW7o3xarcZSa632nXAMB9LgLkYDO/uMrW/0x53cLv7ADA/zmIzlj53boeAAoBAACBnALgIDPeRrX6D+E1DHfsAIADZxSnAuCOAACAQE4BsLeZbp1a/YfyeiadHQAACCQASGa1FMy1AKQTAOxlhtulhj9z5KuB2ZsAAGLZBSCZACCR1T8QTwDwpBl/cQrMcRfAaQD2IgAAIJAAII3tf/7gWgASCQAACCQAeNTMzv9b/bOTXQDSCACA+XEhIE8SAAAQSACQwvY/T3IagCQCAAACCQB28gVA0DTXAfAoAUAC2//szWkAUggAAAgkAAAgkABg7mz/czCnAUggAAAgkADgQT4BADBvAgBgvnwUkJ0EAAAEEgDMmQsAOZoLAZk7AQAAgQQAAAQSAAAQSAAAQCABAACBBAAABBIAzJWPAAI8QgAA7OC7AJgzAcAf/B0AgPkTAADz5u8B8CABAACBBAAABBIAABBIAABAIAEAAIEEAAAEEgAAEEgAAEAgAQAAgQQAAAQSAAAQSAAAQCABAACBBAAABBIAABBIAABAIAEAAIEEAAAEEgAAEEgAAEAgAQAAgQQAAAQSAAAQSAAAQCABAACBBAAABBIAABBIAABAIAEAAIEEAAAEEgAAEEgAAEAgAQAAgQQAAAQSAAAQSAAAQCABAACBBAAABBIAABBIAABAIAEAAIEEAAAEEgAAEEgAAEAgAQAAgQQAAAQSAAAQSAAAQCABAACBBAAABBIAABBIAABAIAEAAIEEAAAEEgAAEEgAAEAgAQAAgQQAAAQSAAAQSAAAQCABAACBBAAABBIAABBIAABAIAEAAIEEAAAEWpZbKvPt7PxjuTuVi3LbqstyC33wfjjB65vrD+UuFREAFdgx7Fs/4ABs/BEgomB6AmAiW0PfsAfS/IoCMTANATCye4Pf0Ae4cxsDQmBcAmAkBj/Ak4TAiATAwAx+gIMJgREIgIEY/AAnEwIDEgADKMPf4Afox6UI6J8A6JnhDzAIEdAzAdAjwx9gUCKgRwKgB+vB/2O1ev58uXxb/gmAAXTH2s/dsfaHEDidADiRVT/AJOwGnEgAnMDwB5iUCDiBvwZ4gv9WqxflLgDjuygLMY4gAI70+eWrT38tl2/KQwAm8GOxMseO5BTAEWz9A1TFqYAjCIADGf4AVRIBBxIABzD8AaomAg4gAPZk+AM0QQTsycUTABDIDsAerP4BmmIXYA92AAAgkB2AJ1j9AzTJLsAT7AAAQCA7AI+w+gdoml2AR9gBAIBAdgB2sPoHmAW7ADvYAQCAQAIAAAIJAAAI5BqABzj/DzArrgN4gB0AAAgkAAAgkAAAgEACAAACuQhwiwsAAWbJhYBb7AAAQCABAACBBAAABBIAABBIAABAIAEAAIEEAAAEEgAAEEgAAEAgAQAAgQQAAAQSAAAQSAAAQCABAACBBAAABBIAABBIAABAIAEAAIEEAAAEEgAAEEgAAEAgAQAAgQQAAAQSAAAQSAAAQCABAACBBAAABBIAABBIAABAIAEAAIEEAAAEEgAAEGhZbim+nZ1/7G4u7h5B8y7L7bG8F5iLy9c31x/KfToCYIsAoHG/DfxTD3jl/XCf9watEgBbBMAWAUCDfg39oQ9wW0HgfUJLBMAWAbBFANCQ28E/1UHtXgx4v9ACAbDFRYDQnvXgvz2YTXlAu/f/f7laLK7u/hVohQCAtkw++Letf5a/b67XuwCnXnAIjEgAQBt+rfrvHtZnsxtQ/gdUTgBA/apb9e9y7+cUAVA5AQB1a/LCJREA9RMAUK8mh/+GCIC6CQCoU9PDf0MEQL0EANRnFsN/QwRAnQQA1GVWw39DBEB9BADUY5bDf0MEQF0EANRh1sN/QwRAPQQAAAQSADC9iNX/hl0AqIMAgGlFDf8NEQDTEwAAEEgAwHQiV/8bdgFgWgIAAAIJAJhG9Op/wy4ATEcAAEAgAQAAgQQAjM/2/z1OA8A0BAAABBIAABBIAMC4bP8/wGkAGJ8AAIBAAgAAAgkAAAgkAAAgkAAAgEACAAACCQAYj48APsJHAWFcAgAAAgkAAAgkAAAgkACA8Vx8Ozv/WO6zpTw3F3ePgKEJAAAIJAAAIJAAAIBAAgAAAgkAAAgkAAAgkACAcfko4AN8BBDGJwAAIJAAAIBAAgDG5zTAPbb/YRoCAAACCQAACCQAYBpOA3Rs/8N0BAAABBIAMJ3oXQCrf5iWAACAQAIAphW5C2D1D9MTADCx1WKxLHcjGP5QBwEAE+um//vkawGAaQgAqEPEqQCrf6iHAIB6zDoCDH+oiwCAivxYrZ6Xu7PzfbV6Ue4CFRAAUJHny+XbL2fnV+XhbHw5e3X1Yrl8Ux4CFRAAUJnuTfluThGwHv7PFst35SFQCQEAFVpHwOeXrz61fE3A+mf/9PLVZ8Mf6iQAoFLr0wHdTZMXBm4u+LPtD/USAFC/piJgM/zvHgG1EgDQhouvZ+eX5X61ys9o+EMDBAA0ovZvDFz/bOufsTwEKicAACCQAACAQAIAAAIJAAAIJAAAIJAAgHZcvr65/lDuV6f8bNV/VBG4IwAAIJAAAIBAAgAAAgkAAAgkAAAgkAAAeuOTANAOAQBtqPojgEB7BAAABBIAABBIAABAIAEAAIEEAAAEEgBQv6Y+AeCjgNAGAQAAgQQAAAQSAAAQSAAAQCABAACBBADUrcm/AeCTAFA/AQAAgQQAAAQSAAAQSAAAQCABAACBBADUq8lPAGz4JADUTQAAQCABAACBBAAABBIAABBIAABAIAEAdWr6EwAbPgkA9RIAABBIAABAIAEAAIEEAAAEEgAAEEgAQH1m8QmADZ8EgDoJAAAIJAAAIJAAAIBAAgAAAgkAAAgkAAAgkAAAgEACAAACCQAACCQAoD4X387OP5b7zSv/LRd3j4BaCAAACCQAoE6z2AWw+od6CQCo1GqxWJa7zfrpGAPV8uaESnXT/33LuwDrn707wLwrD4HKCACo28XXs/PLlkJg/bOuf+burq1/qFjzW4x9c86Sit3+Tf3y9/Wrcy9SvH+o0WWt752pCIAtAoAG3IbAfWMf2HbsSHjfUDMBsEUAbBEANOqPKBiY9witEQBbBMAWAQAwSwJgi4sAASCQAACAQAIAAAIJAAAIJAAAIJAAAIBAAgAAAgkAAAgkAAAgkAAAgEACAAACCQAACCQAACCQAACAQAIAAAIJAAAIJAAAIJAAAIBAAgAAAgkAAAgkAAAgkAAAgEACAAACCQAACCQAACCQAACAQAIAAAIJAAAIJAAAIJAAAIBAAgAAAi3LLfd8Ozv/2N1c3D0CoHGXr2+uP5T7FHYAACCQAACAQAIAAAIJAAAIJAAAmDMXAO4gAB5QXiyXd48AYH4EAAAEEgAAEMgXAT3CFwIBNM35/0fYAQCAQHYAnmAXAKBJVv9PsAMAAIHsAOzBLgBAU6z+92AHAAAC2QHYk10AgCZY/e/JDgAABLIDcAC7AABVs/o/gAA4kAgAqJLhfyABcISvZ+eX3RP3vjwEYEKrxeLq75trC7MDuQbgCN3w715vAEzt+2r1xfA/jgA4Qtlm8ueCASb2Yrn8Xu5yIKcATuB6AIBJOe9/AgFwIhEAMAnD/0QCoAciAGBUhn8PBEBP1hGw6p7P7gn16QCAAayv9u+OsSvDvx8CoGd2AwAGYdXfMwEwABEA0CvDfwACYCAlAtaEAMBxbj9ubfgPQwAMTAgAHMzgH4EAGIkQAHiSwT8iATAyIQDwB4N/AgJgIvdCYE0MAGl+fZ26wT8NAVCBrRjYEAXAXPwa9huG/vQEQKV2RAFAcwx7AAAAAAAAAAAAAAAAAAAAAAAAAAAAAAAAAAAAAAAAAAAAAAAAAAAAAAAAAAAAAAAAAAAAAAAAAAAAAAAAAJiJxeJ/3SDdTv84CMsAAAAASUVORK5CYII=;" vertex="1" parent="1">
          <mxGeometry x="6645" y="-1444.5" width="19" height="19" as="geometry" />
        </mxCell>
        <mxCell id="pWjQ2jvJ6Y_HHa9xYU3Q-43" value="" style="shape=image;aspect=fixed;image=data:image/png,iVBORw0KGgoAAAANSUhEUgAAAgAAAAIACAYAAAD0eNT6AAAAAXNSR0IArs4c6QAAAARnQU1BAACxjwv8YQUAAAAJcEhZcwAADsMAAA7DAcdvqGQAABChSURBVHhe7d3JdhNJGoZhCahbwRu8oxjM9WMz7Vwb160UoE7ZIdoIy9aQQ0R+z3NOH0ls2iVL+b8RmZIXAAAAAAAAAAAAAAAAAAAAAAAAAAAAAAAAAAAAAAAAAAAAAAAAAAAAAAAAAAAAAAAAAAAAAAAAAAAAAAAAAHC4ZbkFZuTb2fnHcrcXr2+uP5S7wEwIAGjMnsP9otz25bLc7iQSoC0CACq2Y9j3Pdz78kckiAKolwCASjQ27PclCqBSAgAm8sDAb33Y7+tXFIgBmI4AgBFtDf2Ugf+Y33YIBAGMRwDAwAz9g9gdgJEIABiAod8LMQADEgDQo3uD39Dv120MCAHojwCAE1ntj8quAPREAMCRrPYnZ1cATiAA4EAGf3WEABxBAMCeDP7qCQE4gACAJxj8zRECsAcBADsY/M0TAvAIAQBbDP7ZEQLwAAEAhcE/e0IA7hEAxDP44wgB6AgAopXhb/BnuhQBJBMARLLqp7AbQCwBQByrfh5gN4A4AoAYVv08wW4AUQQAEaz6OYDdACIIAGbNqp8jiQBmTwAwW1b9nOLnYvHpWXcjBJgrAcAsGf70yG4AsyQAmB3DnwGIAGZHADAb68H/s3tNP1ss3pd/gt6sFour7oC5EgLMhQBgFqz6GZHdAGZBANA8w58JiACaJwBomuHPhEQATRMANMvwpwIigGYJAJr09ez8snvxutiPya0vDvz75lqI0pxn5Raa8cXwpyLr1+I6SMtDaIYdAJry5ezV1bPF8l15CNVYf3Pgm5trYUoz7ADQjM8vX30y/KlVdzB9t36NlodQPTsANOHTy1efXyyXb8pDqNb31erLu3//eVseQrUEANUz/GnNj9Xq89t//7FbRdUEAFVbb6k+Xy6tpmjOj8Xq09ubf1wTQLUEANX6cnZ+tT6vWh5Cc1wYSM0EAFXyOX/mwvcEUCsBQHV8wx8z5BsDqY4AoCqGPzMmAqiKAKAahj8BRADVEABUwfAniAigCgKAyRn+BBIBTE4AMCnDn2AigEn5WwBMaiVCASbh4MtkrP7BLgDTEQBMwvAfXN9/n97vajgigEkIAEZn+PfqwUHf90Apv7OH+D32QwQwOgHA6HzN70l+G/hTD40HwkAQHEcAMDoBwKis/o/ya+jXPiS2gsDv+TAigFEJAEZj+B+kmaG/ixg4ighgNAKAURj+e7sd/HMbAvdiwGvgaSKAUQgARiEAHtX8an9fdgX2IgAYhQBgcIb/TrNc7e/LrsCjRACDEwAMyvB/UPTg3yYE/rRaLK7+vrn2fDAoAcCgBMBvDP5HCIE/2AVgUAKAwRj+v3Ew35PXzW+8bhiMPwYEw1qv+h3ED1Ceq9vn7fYfgEHYAWAQ6au49Tnc7s21MvhPs34d/eyOU91KJfmbIwUkgxAA9M4WrgN237ymvKbon1MA0C8H6gGU59QpAeiRHQB6lbpSs+U/jvXrq3uul91znXhKQFzSKzsAcLrL9We2HZyHt36Oy+fj7QbAiewA0JvQ1b9V2US83uA0dgDgeA7GEyrPvZ0AOJIdAHoRuBoz/CvhtQfHsQMAB/hvtfra3TgAV8ROABzHDgAnS1mBfV+tvrz795+35SGVWb8Ou0B78ddy+ab805yJUE5mBwD2sF75G/51Ww/Ebvh/Lw+BJwgATpKy+u8Gy3/lLhULOh1wUd57cDQBAE+z3doQ1wTAflwDwNFCVv+Gf6O8PuFxdgBgNwfXhtkJgMcJAHiY4T8DIgB2EwAcZc7bqz8XiyvDfz7Wv8vud/qpPJwbFwNyNAEAW7o3xarcZSa632nXAMB9LgLkYDO/uMrW/0x53cLv7ADA/zmIzlj53boeAAoBAACBnALgIDPeRrX6D+E1DHfsAIADZxSnAuCOAACAQE4BsLeZbp1a/YfyeiadHQAACCQASGa1FMy1AKQTAOxlhtulhj9z5KuB2ZsAAGLZBSCZACCR1T8QTwDwpBl/cQrMcRfAaQD2IgAAIJAAII3tf/7gWgASCQAACCQAeNTMzv9b/bOTXQDSCACA+XEhIE8SAAAQSACQwvY/T3IagCQCAAACCQB28gVA0DTXAfAoAUAC2//szWkAUggAAAgkAAAgkABg7mz/czCnAUggAAAgkADgQT4BADBvAgBgvnwUkJ0EAAAEEgDMmQsAOZoLAZk7AQAAgQQAAAQSAAAQSAAAQCABAACBBAAABBIAzJWPAAI8QgAA7OC7AJgzAcAf/B0AgPkTAADz5u8B8CABAACBBAAABBIAABBIAABAIAEAAIEEAAAEEgAAEEgAAEAgAQAAgQQAAAQSAAAQSAAAQCABAACBBAAABBIAABBIAABAIAEAAIEEAAAEEgAAEEgAAEAgAQAAgQQAAAQSAAAQSAAAQCABAACBBAAABBIAABBIAABAIAEAAIEEAAAEEgAAEEgAAEAgAQAAgQQAAAQSAAAQSAAAQCABAACBBAAABBIAABBIAABAIAEAAIEEAAAEEgAAEEgAAEAgAQAAgQQAAAQSAAAQSAAAQCABAACBBAAABBIAABBIAABAIAEAAIEEAAAEEgAAEEgAAEAgAQAAgQQAAAQSAAAQSAAAQCABAACBBAAABBIAABBIAABAIAEAAIEEAAAEWpZbKvPt7PxjuTuVi3LbqstyC33wfjjB65vrD+UuFREAFdgx7Fs/4ABs/BEgomB6AmAiW0PfsAfS/IoCMTANATCye4Pf0Ae4cxsDQmBcAmAkBj/Ak4TAiATAwAx+gIMJgREIgIEY/AAnEwIDEgADKMPf4Afox6UI6J8A6JnhDzAIEdAzAdAjwx9gUCKgRwKgB+vB/2O1ev58uXxb/gmAAXTH2s/dsfaHEDidADiRVT/AJOwGnEgAnMDwB5iUCDiBvwZ4gv9WqxflLgDjuygLMY4gAI70+eWrT38tl2/KQwAm8GOxMseO5BTAEWz9A1TFqYAjCIADGf4AVRIBBxIABzD8AaomAg4gAPZk+AM0QQTsycUTABDIDsAerP4BmmIXYA92AAAgkB2AJ1j9AzTJLsAT7AAAQCA7AI+w+gdoml2AR9gBAIBAdgB2sPoHmAW7ADvYAQCAQAIAAAIJAAAI5BqABzj/DzArrgN4gB0AAAgkAAAgkAAAgEACAAACuQhwiwsAAWbJhYBb7AAAQCABAACBBAAABBIAABBIAABAIAEAAIEEAAAEEgAAEEgAAEAgAQAAgQQAAAQSAAAQSAAAQCABAACBBAAABBIAABBIAABAIAEAAIEEAAAEEgAAEEgAAEAgAQAAgQQAAAQSAAAQSAAAQCABAACBBAAABBIAABBIAABAIAEAAIEEAAAEEgAAEGhZbim+nZ1/7G4u7h5B8y7L7bG8F5iLy9c31x/KfToCYIsAoHG/DfxTD3jl/XCf9watEgBbBMAWAUCDfg39oQ9wW0HgfUJLBMAWAbBFANCQ28E/1UHtXgx4v9ACAbDFRYDQnvXgvz2YTXlAu/f/f7laLK7u/hVohQCAtkw++Letf5a/b67XuwCnXnAIjEgAQBt+rfrvHtZnsxtQ/gdUTgBA/apb9e9y7+cUAVA5AQB1a/LCJREA9RMAUK8mh/+GCIC6CQCoU9PDf0MEQL0EANRnFsN/QwRAnQQA1GVWw39DBEB9BADUY5bDf0MEQF0EANRh1sN/QwRAPQQAAAQSADC9iNX/hl0AqIMAgGlFDf8NEQDTEwAAEEgAwHQiV/8bdgFgWgIAAAIJAJhG9Op/wy4ATEcAAEAgAQAAgQQAjM/2/z1OA8A0BAAABBIAABBIAMC4bP8/wGkAGJ8AAIBAAgAAAgkAAAgkAAAgkAAAgEACAAACCQAYj48APsJHAWFcAgAAAgkAAAgkAAAgkACA8Vx8Ozv/WO6zpTw3F3ePgKEJAAAIJAAAIJAAAIBAAgAAAgkAAAgkAAAgkACAcfko4AN8BBDGJwAAIJAAAIBAAgDG5zTAPbb/YRoCAAACCQAACCQAYBpOA3Rs/8N0BAAABBIAMJ3oXQCrf5iWAACAQAIAphW5C2D1D9MTADCx1WKxLHcjGP5QBwEAE+um//vkawGAaQgAqEPEqQCrf6iHAIB6zDoCDH+oiwCAivxYrZ6Xu7PzfbV6Ue4CFRAAUJHny+XbL2fnV+XhbHw5e3X1Yrl8Ux4CFRAAUJnuTfluThGwHv7PFst35SFQCQEAFVpHwOeXrz61fE3A+mf/9PLVZ8Mf6iQAoFLr0wHdTZMXBm4u+LPtD/USAFC/piJgM/zvHgG1EgDQhouvZ+eX5X61ys9o+EMDBAA0ovZvDFz/bOufsTwEKicAACCQAACAQAIAAAIJAAAIJAAAIJAAgHZcvr65/lDuV6f8bNV/VBG4IwAAIJAAAIBAAgAAAgkAAAgkAAAgkAAAeuOTANAOAQBtqPojgEB7BAAABBIAABBIAABAIAEAAIEEAAAEEgBQv6Y+AeCjgNAGAQAAgQQAAAQSAAAQSAAAQCABAACBBADUrcm/AeCTAFA/AQAAgQQAAAQSAAAQSAAAQCABAACBBADUq8lPAGz4JADUTQAAQCABAACBBAAABBIAABBIAABAIAEAdWr6EwAbPgkA9RIAABBIAABAIAEAAIEEAAAEEgAAEEgAQH1m8QmADZ8EgDoJAAAIJAAAIJAAAIBAAgAAAgkAAAgkAAAgkAAAgEACAAACCQAACCQAoD4X387OP5b7zSv/LRd3j4BaCAAACCQAoE6z2AWw+od6CQCo1GqxWJa7zfrpGAPV8uaESnXT/33LuwDrn707wLwrD4HKCACo28XXs/PLlkJg/bOuf+burq1/qFjzW4x9c86Sit3+Tf3y9/Wrcy9SvH+o0WWt752pCIAtAoAG3IbAfWMf2HbsSHjfUDMBsEUAbBEANOqPKBiY9witEQBbBMAWAQAwSwJgi4sAASCQAACAQAIAAAIJAAAIJAAAIJAAAIBAAgAAAgkAAAgkAAAgkAAAgEACAAACCQAACCQAACCQAACAQAIAAAIJAAAIJAAAIJAAAIBAAgAAAgkAAAgkAAAgkAAAgEACAAACCQAACCQAACCQAACAQAIAAAIJAAAIJAAAIJAAAIBAAgAAAi3LLfd8Ozv/2N1c3D0CoHGXr2+uP5T7FHYAACCQAACAQAIAAAIJAAAIJAAAmDMXAO4gAB5QXiyXd48AYH4EAAAEEgAAEMgXAT3CFwIBNM35/0fYAQCAQHYAnmAXAKBJVv9PsAMAAIHsAOzBLgBAU6z+92AHAAAC2QHYk10AgCZY/e/JDgAABLIDcAC7AABVs/o/gAA4kAgAqJLhfyABcISvZ+eX3RP3vjwEYEKrxeLq75trC7MDuQbgCN3w715vAEzt+2r1xfA/jgA4Qtlm8ueCASb2Yrn8Xu5yIKcATuB6AIBJOe9/AgFwIhEAMAnD/0QCoAciAGBUhn8PBEBP1hGw6p7P7gn16QCAAayv9u+OsSvDvx8CoGd2AwAGYdXfMwEwABEA0CvDfwACYCAlAtaEAMBxbj9ubfgPQwAMTAgAHMzgH4EAGIkQAHiSwT8iATAyIQDwB4N/AgJgIvdCYE0MAGl+fZ26wT8NAVCBrRjYEAXAXPwa9huG/vQEQKV2RAFAcwx7AAAAAAAAAAAAAAAAAAAAAAAAAAAAAAAAAAAAAAAAAAAAAAAAAAAAAAAAAAAAAAAAAAAAAAAAAAAAAAAAAJiJxeJ/3SDdTv84CMsAAAAASUVORK5CYII=;" vertex="1" parent="1">
          <mxGeometry x="7296.5" y="-1376" width="19" height="19" as="geometry" />
        </mxCell>
        <mxCell id="pWjQ2jvJ6Y_HHa9xYU3Q-44" value="" style="shape=image;aspect=fixed;image=data:image/png,iVBORw0KGgoAAAANSUhEUgAAAgAAAAIACAYAAAD0eNT6AAAAAXNSR0IArs4c6QAAAARnQU1BAACxjwv8YQUAAAAJcEhZcwAADsMAAA7DAcdvqGQAABChSURBVHhe7d3JdhNJGoZhCahbwRu8oxjM9WMz7Vwb160UoE7ZIdoIy9aQQ0R+z3NOH0ls2iVL+b8RmZIXAAAAAAAAAAAAAAAAAAAAAAAAAAAAAAAAAAAAAAAAAAAAAAAAAAAAAAAAAAAAAAAAAAAAAAAAAAAAAAAAAHC4ZbkFZuTb2fnHcrcXr2+uP5S7wEwIAGjMnsP9otz25bLc7iQSoC0CACq2Y9j3Pdz78kckiAKolwCASjQ27PclCqBSAgAm8sDAb33Y7+tXFIgBmI4AgBFtDf2Ugf+Y33YIBAGMRwDAwAz9g9gdgJEIABiAod8LMQADEgDQo3uD39Dv120MCAHojwCAE1ntj8quAPREAMCRrPYnZ1cATiAA4EAGf3WEABxBAMCeDP7qCQE4gACAJxj8zRECsAcBADsY/M0TAvAIAQBbDP7ZEQLwAAEAhcE/e0IA7hEAxDP44wgB6AgAopXhb/BnuhQBJBMARLLqp7AbQCwBQByrfh5gN4A4AoAYVv08wW4AUQQAEaz6OYDdACIIAGbNqp8jiQBmTwAwW1b9nOLnYvHpWXcjBJgrAcAsGf70yG4AsyQAmB3DnwGIAGZHADAb68H/s3tNP1ss3pd/gt6sFour7oC5EgLMhQBgFqz6GZHdAGZBANA8w58JiACaJwBomuHPhEQATRMANMvwpwIigGYJAJr09ez8snvxutiPya0vDvz75lqI0pxn5Raa8cXwpyLr1+I6SMtDaIYdAJry5ezV1bPF8l15CNVYf3Pgm5trYUoz7ADQjM8vX30y/KlVdzB9t36NlodQPTsANOHTy1efXyyXb8pDqNb31erLu3//eVseQrUEANUz/GnNj9Xq89t//7FbRdUEAFVbb6k+Xy6tpmjOj8Xq09ubf1wTQLUEANX6cnZ+tT6vWh5Cc1wYSM0EAFXyOX/mwvcEUCsBQHV8wx8z5BsDqY4AoCqGPzMmAqiKAKAahj8BRADVEABUwfAniAigCgKAyRn+BBIBTE4AMCnDn2AigEn5WwBMaiVCASbh4MtkrP7BLgDTEQBMwvAfXN9/n97vajgigEkIAEZn+PfqwUHf90Apv7OH+D32QwQwOgHA6HzN70l+G/hTD40HwkAQHEcAMDoBwKis/o/ya+jXPiS2gsDv+TAigFEJAEZj+B+kmaG/ixg4ighgNAKAURj+e7sd/HMbAvdiwGvgaSKAUQgARiEAHtX8an9fdgX2IgAYhQBgcIb/TrNc7e/LrsCjRACDEwAMyvB/UPTg3yYE/rRaLK7+vrn2fDAoAcCgBMBvDP5HCIE/2AVgUAKAwRj+v3Ew35PXzW+8bhiMPwYEw1qv+h3ED1Ceq9vn7fYfgEHYAWAQ6au49Tnc7s21MvhPs34d/eyOU91KJfmbIwUkgxAA9M4WrgN237ymvKbon1MA0C8H6gGU59QpAeiRHQB6lbpSs+U/jvXrq3uul91znXhKQFzSKzsAcLrL9We2HZyHt36Oy+fj7QbAiewA0JvQ1b9V2US83uA0dgDgeA7GEyrPvZ0AOJIdAHoRuBoz/CvhtQfHsQMAB/hvtfra3TgAV8ROABzHDgAnS1mBfV+tvrz795+35SGVWb8Ou0B78ddy+ab805yJUE5mBwD2sF75G/51Ww/Ebvh/Lw+BJwgATpKy+u8Gy3/lLhULOh1wUd57cDQBAE+z3doQ1wTAflwDwNFCVv+Gf6O8PuFxdgBgNwfXhtkJgMcJAHiY4T8DIgB2EwAcZc7bqz8XiyvDfz7Wv8vud/qpPJwbFwNyNAEAW7o3xarcZSa632nXAMB9LgLkYDO/uMrW/0x53cLv7ADA/zmIzlj53boeAAoBAACBnALgIDPeRrX6D+E1DHfsAIADZxSnAuCOAACAQE4BsLeZbp1a/YfyeiadHQAACCQASGa1FMy1AKQTAOxlhtulhj9z5KuB2ZsAAGLZBSCZACCR1T8QTwDwpBl/cQrMcRfAaQD2IgAAIJAAII3tf/7gWgASCQAACCQAeNTMzv9b/bOTXQDSCACA+XEhIE8SAAAQSACQwvY/T3IagCQCAAACCQB28gVA0DTXAfAoAUAC2//szWkAUggAAAgkAAAgkABg7mz/czCnAUggAAAgkADgQT4BADBvAgBgvnwUkJ0EAAAEEgDMmQsAOZoLAZk7AQAAgQQAAAQSAAAQSAAAQCABAACBBAAABBIAzJWPAAI8QgAA7OC7AJgzAcAf/B0AgPkTAADz5u8B8CABAACBBAAABBIAABBIAABAIAEAAIEEAAAEEgAAEEgAAEAgAQAAgQQAAAQSAAAQSAAAQCABAACBBAAABBIAABBIAABAIAEAAIEEAAAEEgAAEEgAAEAgAQAAgQQAAAQSAAAQSAAAQCABAACBBAAABBIAABBIAABAIAEAAIEEAAAEEgAAEEgAAEAgAQAAgQQAAAQSAAAQSAAAQCABAACBBAAABBIAABBIAABAIAEAAIEEAAAEEgAAEEgAAEAgAQAAgQQAAAQSAAAQSAAAQCABAACBBAAABBIAABBIAABAIAEAAIEEAAAEEgAAEEgAAEAgAQAAgQQAAAQSAAAQSAAAQCABAACBBAAABBIAABBIAABAIAEAAIEEAAAEWpZbKvPt7PxjuTuVi3LbqstyC33wfjjB65vrD+UuFREAFdgx7Fs/4ABs/BEgomB6AmAiW0PfsAfS/IoCMTANATCye4Pf0Ae4cxsDQmBcAmAkBj/Ak4TAiATAwAx+gIMJgREIgIEY/AAnEwIDEgADKMPf4Afox6UI6J8A6JnhDzAIEdAzAdAjwx9gUCKgRwKgB+vB/2O1ev58uXxb/gmAAXTH2s/dsfaHEDidADiRVT/AJOwGnEgAnMDwB5iUCDiBvwZ4gv9WqxflLgDjuygLMY4gAI70+eWrT38tl2/KQwAm8GOxMseO5BTAEWz9A1TFqYAjCIADGf4AVRIBBxIABzD8AaomAg4gAPZk+AM0QQTsycUTABDIDsAerP4BmmIXYA92AAAgkB2AJ1j9AzTJLsAT7AAAQCA7AI+w+gdoml2AR9gBAIBAdgB2sPoHmAW7ADvYAQCAQAIAAAIJAAAI5BqABzj/DzArrgN4gB0AAAgkAAAgkAAAgEACAAACuQhwiwsAAWbJhYBb7AAAQCABAACBBAAABBIAABBIAABAIAEAAIEEAAAEEgAAEEgAAEAgAQAAgQQAAAQSAAAQSAAAQCABAACBBAAABBIAABBIAABAIAEAAIEEAAAEEgAAEEgAAEAgAQAAgQQAAAQSAAAQSAAAQCABAACBBAAABBIAABBIAABAIAEAAIEEAAAEEgAAEGhZbim+nZ1/7G4u7h5B8y7L7bG8F5iLy9c31x/KfToCYIsAoHG/DfxTD3jl/XCf9watEgBbBMAWAUCDfg39oQ9wW0HgfUJLBMAWAbBFANCQ28E/1UHtXgx4v9ACAbDFRYDQnvXgvz2YTXlAu/f/f7laLK7u/hVohQCAtkw++Letf5a/b67XuwCnXnAIjEgAQBt+rfrvHtZnsxtQ/gdUTgBA/apb9e9y7+cUAVA5AQB1a/LCJREA9RMAUK8mh/+GCIC6CQCoU9PDf0MEQL0EANRnFsN/QwRAnQQA1GVWw39DBEB9BADUY5bDf0MEQF0EANRh1sN/QwRAPQQAAAQSADC9iNX/hl0AqIMAgGlFDf8NEQDTEwAAEEgAwHQiV/8bdgFgWgIAAAIJAJhG9Op/wy4ATEcAAEAgAQAAgQQAjM/2/z1OA8A0BAAABBIAABBIAMC4bP8/wGkAGJ8AAIBAAgAAAgkAAAgkAAAgkAAAgEACAAACCQAYj48APsJHAWFcAgAAAgkAAAgkAAAgkACA8Vx8Ozv/WO6zpTw3F3ePgKEJAAAIJAAAIJAAAIBAAgAAAgkAAAgkAAAgkACAcfko4AN8BBDGJwAAIJAAAIBAAgDG5zTAPbb/YRoCAAACCQAACCQAYBpOA3Rs/8N0BAAABBIAMJ3oXQCrf5iWAACAQAIAphW5C2D1D9MTADCx1WKxLHcjGP5QBwEAE+um//vkawGAaQgAqEPEqQCrf6iHAIB6zDoCDH+oiwCAivxYrZ6Xu7PzfbV6Ue4CFRAAUJHny+XbL2fnV+XhbHw5e3X1Yrl8Ux4CFRAAUJnuTfluThGwHv7PFst35SFQCQEAFVpHwOeXrz61fE3A+mf/9PLVZ8Mf6iQAoFLr0wHdTZMXBm4u+LPtD/USAFC/piJgM/zvHgG1EgDQhouvZ+eX5X61ys9o+EMDBAA0ovZvDFz/bOufsTwEKicAACCQAACAQAIAAAIJAAAIJAAAIJAAgHZcvr65/lDuV6f8bNV/VBG4IwAAIJAAAIBAAgAAAgkAAAgkAAAgkAAAeuOTANAOAQBtqPojgEB7BAAABBIAABBIAABAIAEAAIEEAAAEEgBQv6Y+AeCjgNAGAQAAgQQAAAQSAAAQSAAAQCABAACBBADUrcm/AeCTAFA/AQAAgQQAAAQSAAAQSAAAQCABAACBBADUq8lPAGz4JADUTQAAQCABAACBBAAABBIAABBIAABAIAEAdWr6EwAbPgkA9RIAABBIAABAIAEAAIEEAAAEEgAAEEgAQH1m8QmADZ8EgDoJAAAIJAAAIJAAAIBAAgAAAgkAAAgkAAAgkAAAgEACAAACCQAACCQAoD4X387OP5b7zSv/LRd3j4BaCAAACCQAoE6z2AWw+od6CQCo1GqxWJa7zfrpGAPV8uaESnXT/33LuwDrn707wLwrD4HKCACo28XXs/PLlkJg/bOuf+burq1/qFjzW4x9c86Sit3+Tf3y9/Wrcy9SvH+o0WWt752pCIAtAoAG3IbAfWMf2HbsSHjfUDMBsEUAbBEANOqPKBiY9witEQBbBMAWAQAwSwJgi4sAASCQAACAQAIAAAIJAAAIJAAAIJAAAIBAAgAAAgkAAAgkAAAgkAAAgEACAAACCQAACCQAACCQAACAQAIAAAIJAAAIJAAAIJAAAIBAAgAAAgkAAAgkAAAgkAAAgEACAAACCQAACCQAACCQAACAQAIAAAIJAAAIJAAAIJAAAIBAAgAAAi3LLfd8Ozv/2N1c3D0CoHGXr2+uP5T7FHYAACCQAACAQAIAAAIJAAAIJAAAmDMXAO4gAB5QXiyXd48AYH4EAAAEEgAAEMgXAT3CFwIBNM35/0fYAQCAQHYAnmAXAKBJVv9PsAMAAIHsAOzBLgBAU6z+92AHAAAC2QHYk10AgCZY/e/JDgAABLIDcAC7AABVs/o/gAA4kAgAqJLhfyABcISvZ+eX3RP3vjwEYEKrxeLq75trC7MDuQbgCN3w715vAEzt+2r1xfA/jgA4Qtlm8ueCASb2Yrn8Xu5yIKcATuB6AIBJOe9/AgFwIhEAMAnD/0QCoAciAGBUhn8PBEBP1hGw6p7P7gn16QCAAayv9u+OsSvDvx8CoGd2AwAGYdXfMwEwABEA0CvDfwACYCAlAtaEAMBxbj9ubfgPQwAMTAgAHMzgH4EAGIkQAHiSwT8iATAyIQDwB4N/AgJgIvdCYE0MAGl+fZ26wT8NAVCBrRjYEAXAXPwa9huG/vQEQKV2RAFAcwx7AAAAAAAAAAAAAAAAAAAAAAAAAAAAAAAAAAAAAAAAAAAAAAAAAAAAAAAAAAAAAAAAAAAAAAAAAAAAAAAAAJiJxeJ/3SDdTv84CMsAAAAASUVORK5CYII=;" vertex="1" parent="1">
          <mxGeometry x="6435" y="-1329" width="19" height="19" as="geometry" />
        </mxCell>
        <mxCell id="pWjQ2jvJ6Y_HHa9xYU3Q-71" style="edgeStyle=orthogonalEdgeStyle;rounded=0;orthogonalLoop=1;jettySize=auto;html=1;entryX=0.5;entryY=1;entryDx=0;entryDy=0;endArrow=block;endFill=0;endSize=16;exitX=0.5;exitY=0;exitDx=0;exitDy=0;" edge="1" parent="1" source="pWjQ2jvJ6Y_HHa9xYU3Q-45" target="pWjQ2jvJ6Y_HHa9xYU3Q-3">
          <mxGeometry relative="1" as="geometry">
            <Array as="points">
              <mxPoint x="6615" y="-1610" />
              <mxPoint x="6555" y="-1610" />
            </Array>
          </mxGeometry>
        </mxCell>
        <mxCell id="pWjQ2jvJ6Y_HHa9xYU3Q-45" value="&lt;span style=&quot;font-weight: 700; background-color: initial;&quot;&gt;MultiMedia&lt;/span&gt;" style="html=1;whiteSpace=wrap;" vertex="1" parent="1">
          <mxGeometry x="6570" y="-1589.5" width="90" height="50" as="geometry" />
        </mxCell>
        <mxCell id="pWjQ2jvJ6Y_HHa9xYU3Q-46" value="&lt;p style=&quot;margin:0px;margin-top:4px;text-align:center;&quot;&gt;&lt;/p&gt;&lt;div style=&quot;height:2px;&quot;&gt;&lt;/div&gt;&lt;span style=&quot;font-weight: 700;&quot;&gt;&lt;div style=&quot;text-align: center;&quot;&gt;&lt;span style=&quot;background-color: initial;&quot;&gt;&amp;nbsp;&lt;/span&gt;&lt;i style=&quot;background-color: initial;&quot;&gt;PowerSupplyingPart&lt;/i&gt;&lt;/div&gt;&lt;/span&gt;&lt;hr size=&quot;1&quot; style=&quot;border-style:solid;&quot;&gt;&lt;div style=&quot;height:2px;&quot;&gt;&lt;div style=&quot;height: 2px;&quot;&gt;&lt;div style=&quot;height: 2px;&quot;&gt;&amp;nbsp;safetyLevel: Enum&lt;/div&gt;&lt;div style=&quot;height: 2px;&quot;&gt;&lt;br&gt;&lt;/div&gt;&lt;div style=&quot;height: 2px;&quot;&gt;&lt;br&gt;&lt;/div&gt;&lt;div style=&quot;height: 2px;&quot;&gt;&lt;br&gt;&lt;/div&gt;&lt;div style=&quot;height: 2px;&quot;&gt;&lt;br&gt;&lt;/div&gt;&lt;div style=&quot;height: 2px;&quot;&gt;&lt;br&gt;&lt;/div&gt;&lt;div style=&quot;height: 2px;&quot;&gt;&lt;br&gt;&lt;/div&gt;&lt;div style=&quot;height: 2px;&quot;&gt;&amp;nbsp;maxSuppliedPower: Float&lt;/div&gt;&lt;div style=&quot;height: 2px;&quot;&gt;&lt;br&gt;&lt;/div&gt;&lt;div style=&quot;height: 2px;&quot;&gt;&lt;br&gt;&lt;/div&gt;&lt;div style=&quot;height: 2px;&quot;&gt;&lt;br&gt;&lt;/div&gt;&lt;div style=&quot;height: 2px;&quot;&gt;&lt;br&gt;&lt;/div&gt;&lt;div style=&quot;height: 2px;&quot;&gt;&lt;br&gt;&lt;/div&gt;&lt;div style=&quot;height: 2px;&quot;&gt;&lt;br&gt;&lt;/div&gt;&lt;div style=&quot;height: 2px;&quot;&gt;&amp;nbsp;rawMaterial: String&lt;/div&gt;&lt;/div&gt;&lt;/div&gt;" style="verticalAlign=top;align=left;overflow=fill;html=1;whiteSpace=wrap;" vertex="1" parent="1">
          <mxGeometry x="6700" y="-1700" width="150" height="80" as="geometry" />
        </mxCell>
        <mxCell id="pWjQ2jvJ6Y_HHa9xYU3Q-70" style="edgeStyle=orthogonalEdgeStyle;rounded=0;orthogonalLoop=1;jettySize=auto;html=1;entryX=0.5;entryY=1;entryDx=0;entryDy=0;endArrow=block;endFill=0;endSize=16;" edge="1" parent="1" source="pWjQ2jvJ6Y_HHa9xYU3Q-47" target="pWjQ2jvJ6Y_HHa9xYU3Q-49">
          <mxGeometry relative="1" as="geometry">
            <Array as="points">
              <mxPoint x="6678" y="-1820" />
              <mxPoint x="6600" y="-1820" />
            </Array>
          </mxGeometry>
        </mxCell>
        <mxCell id="pWjQ2jvJ6Y_HHa9xYU3Q-47" value="&lt;b&gt;&lt;i&gt;CarPart&lt;/i&gt;&lt;/b&gt;" style="html=1;whiteSpace=wrap;" vertex="1" parent="1">
          <mxGeometry x="6623" y="-1808" width="110" height="50" as="geometry" />
        </mxCell>
        <mxCell id="pWjQ2jvJ6Y_HHa9xYU3Q-48" value="&lt;b&gt;ECar&lt;/b&gt;" style="html=1;whiteSpace=wrap;" vertex="1" parent="1">
          <mxGeometry x="6390" y="-1808" width="110" height="50" as="geometry" />
        </mxCell>
        <mxCell id="pWjQ2jvJ6Y_HHa9xYU3Q-49" value="&lt;p style=&quot;margin:0px;margin-top:4px;text-align:center;&quot;&gt;&lt;/p&gt;&lt;div style=&quot;height:2px;&quot;&gt;&lt;/div&gt;&lt;span style=&quot;font-weight: 700;&quot;&gt;&lt;div style=&quot;text-align: center;&quot;&gt;&lt;span style=&quot;background-color: initial;&quot;&gt;&amp;nbsp;&lt;i&gt;Product&lt;/i&gt;&lt;/span&gt;&lt;/div&gt;&lt;/span&gt;&lt;hr size=&quot;1&quot; style=&quot;border-style:solid;&quot;&gt;&lt;div style=&quot;height:2px;&quot;&gt;&lt;div style=&quot;height: 2px;&quot;&gt;&amp;nbsp;&lt;span style=&quot;background-color: initial;&quot;&gt;maker: String&lt;/span&gt;&lt;/div&gt;&lt;div style=&quot;height: 2px;&quot;&gt;&lt;div style=&quot;height: 2px;&quot;&gt;&lt;br&gt;&lt;/div&gt;&lt;div style=&quot;height: 2px;&quot;&gt;&lt;br&gt;&lt;/div&gt;&lt;div style=&quot;height: 2px;&quot;&gt;&lt;br&gt;&lt;/div&gt;&lt;div style=&quot;height: 2px;&quot;&gt;&lt;br&gt;&lt;/div&gt;&lt;div style=&quot;height: 2px;&quot;&gt;&lt;br&gt;&lt;/div&gt;&lt;div style=&quot;height: 2px;&quot;&gt;&lt;br&gt;&lt;/div&gt;&lt;div style=&quot;height: 2px;&quot;&gt;&amp;nbsp;protocol: String&lt;/div&gt;&lt;/div&gt;&lt;div style=&quot;height: 2px;&quot;&gt;&lt;br&gt;&lt;/div&gt;&lt;div style=&quot;height: 2px;&quot;&gt;&lt;br&gt;&lt;/div&gt;&lt;div style=&quot;height: 2px;&quot;&gt;&lt;br&gt;&lt;/div&gt;&lt;div style=&quot;height: 2px;&quot;&gt;&lt;br&gt;&lt;/div&gt;&lt;div style=&quot;height: 2px;&quot;&gt;&lt;br&gt;&lt;/div&gt;&lt;div style=&quot;height: 2px;&quot;&gt;&lt;br&gt;&lt;/div&gt;&lt;div style=&quot;height: 2px;&quot;&gt;&lt;br&gt;&lt;/div&gt;&lt;div style=&quot;height: 2px;&quot;&gt;&lt;br&gt;&lt;/div&gt;&lt;div style=&quot;height: 2px;&quot;&gt;&lt;br&gt;&lt;/div&gt;&lt;div style=&quot;height: 2px;&quot;&gt;&lt;br&gt;&lt;/div&gt;&lt;div style=&quot;height: 2px;&quot;&gt;&lt;br&gt;&lt;/div&gt;&lt;/div&gt;" style="verticalAlign=top;align=left;overflow=fill;html=1;whiteSpace=wrap;" vertex="1" parent="1">
          <mxGeometry x="6530" y="-1919.5" width="140" height="63" as="geometry" />
        </mxCell>
        <mxCell id="pWjQ2jvJ6Y_HHa9xYU3Q-50" value="" style="endArrow=block;endSize=16;endFill=0;html=1;rounded=0;entryX=0.5;entryY=1;entryDx=0;entryDy=0;exitX=0.5;exitY=0;exitDx=0;exitDy=0;" edge="1" parent="1" source="pWjQ2jvJ6Y_HHa9xYU3Q-48" target="pWjQ2jvJ6Y_HHa9xYU3Q-49">
          <mxGeometry width="160" relative="1" as="geometry">
            <mxPoint x="6400" y="-1728.33" as="sourcePoint" />
            <mxPoint x="6560" y="-1728.33" as="targetPoint" />
            <Array as="points">
              <mxPoint x="6445" y="-1820" />
              <mxPoint x="6600" y="-1820" />
            </Array>
          </mxGeometry>
        </mxCell>
        <mxCell id="pWjQ2jvJ6Y_HHa9xYU3Q-52" value="" style="endArrow=diamondThin;endFill=1;endSize=24;html=1;rounded=0;entryX=1;entryY=0.5;entryDx=0;entryDy=0;exitX=0;exitY=0.5;exitDx=0;exitDy=0;" edge="1" parent="1" source="pWjQ2jvJ6Y_HHa9xYU3Q-47" target="pWjQ2jvJ6Y_HHa9xYU3Q-48">
          <mxGeometry width="160" relative="1" as="geometry">
            <mxPoint x="6260" y="-1742.5" as="sourcePoint" />
            <mxPoint x="6420" y="-1742.5" as="targetPoint" />
          </mxGeometry>
        </mxCell>
        <mxCell id="pWjQ2jvJ6Y_HHa9xYU3Q-53" value="&lt;font style=&quot;font-size: 15px;&quot;&gt;*&lt;/font&gt;" style="edgeLabel;html=1;align=center;verticalAlign=middle;resizable=0;points=[];" connectable="0" vertex="1" parent="pWjQ2jvJ6Y_HHa9xYU3Q-52">
          <mxGeometry x="-0.8074" relative="1" as="geometry">
            <mxPoint x="-4" y="-12" as="offset" />
          </mxGeometry>
        </mxCell>
        <mxCell id="pWjQ2jvJ6Y_HHa9xYU3Q-54" value="" style="endArrow=block;endSize=16;endFill=0;html=1;rounded=0;entryX=0.5;entryY=1;entryDx=0;entryDy=0;exitX=0.5;exitY=0;exitDx=0;exitDy=0;" edge="1" parent="1" source="pWjQ2jvJ6Y_HHa9xYU3Q-46" target="pWjQ2jvJ6Y_HHa9xYU3Q-47">
          <mxGeometry width="160" relative="1" as="geometry">
            <mxPoint x="6215" y="-1458.5" as="sourcePoint" />
            <mxPoint x="6215" y="-1568.5" as="targetPoint" />
            <Array as="points">
              <mxPoint x="6775" y="-1730" />
              <mxPoint x="6678" y="-1730" />
            </Array>
          </mxGeometry>
        </mxCell>
        <mxCell id="pWjQ2jvJ6Y_HHa9xYU3Q-55" value="" style="endArrow=block;endSize=16;endFill=0;html=1;rounded=0;entryX=0.5;entryY=1;entryDx=0;entryDy=0;exitX=0.5;exitY=0;exitDx=0;exitDy=0;" edge="1" parent="1" source="pWjQ2jvJ6Y_HHa9xYU3Q-3" target="pWjQ2jvJ6Y_HHa9xYU3Q-47">
          <mxGeometry width="160" relative="1" as="geometry">
            <mxPoint x="6760" y="-1719.5" as="sourcePoint" />
            <mxPoint x="6760" y="-1747.5" as="targetPoint" />
            <Array as="points">
              <mxPoint x="6555" y="-1730" />
              <mxPoint x="6678" y="-1730" />
            </Array>
          </mxGeometry>
        </mxCell>
        <mxCell id="pWjQ2jvJ6Y_HHa9xYU3Q-56" value="BMW" style="text;html=1;align=center;verticalAlign=middle;whiteSpace=wrap;rounded=0;fontStyle=1;fontSize=23;" vertex="1" parent="1">
          <mxGeometry x="6550" y="-1990" width="130" height="46" as="geometry" />
        </mxCell>
        <mxCell id="pWjQ2jvJ6Y_HHa9xYU3Q-57" value="" style="shape=image;aspect=fixed;image=data:image/png,iVBORw0KGgoAAAANSUhEUgAAAgAAAAIACAYAAAD0eNT6AAAAAXNSR0IArs4c6QAAAARnQU1BAACxjwv8YQUAAAAJcEhZcwAADsMAAA7DAcdvqGQAABChSURBVHhe7d3JdhNJGoZhCahbwRu8oxjM9WMz7Vwb160UoE7ZIdoIy9aQQ0R+z3NOH0ls2iVL+b8RmZIXAAAAAAAAAAAAAAAAAAAAAAAAAAAAAAAAAAAAAAAAAAAAAAAAAAAAAAAAAAAAAAAAAAAAAAAAAAAAAAAAAHC4ZbkFZuTb2fnHcrcXr2+uP5S7wEwIAGjMnsP9otz25bLc7iQSoC0CACq2Y9j3Pdz78kckiAKolwCASjQ27PclCqBSAgAm8sDAb33Y7+tXFIgBmI4AgBFtDf2Ugf+Y33YIBAGMRwDAwAz9g9gdgJEIABiAod8LMQADEgDQo3uD39Dv120MCAHojwCAE1ntj8quAPREAMCRrPYnZ1cATiAA4EAGf3WEABxBAMCeDP7qCQE4gACAJxj8zRECsAcBADsY/M0TAvAIAQBbDP7ZEQLwAAEAhcE/e0IA7hEAxDP44wgB6AgAopXhb/BnuhQBJBMARLLqp7AbQCwBQByrfh5gN4A4AoAYVv08wW4AUQQAEaz6OYDdACIIAGbNqp8jiQBmTwAwW1b9nOLnYvHpWXcjBJgrAcAsGf70yG4AsyQAmB3DnwGIAGZHADAb68H/s3tNP1ss3pd/gt6sFour7oC5EgLMhQBgFqz6GZHdAGZBANA8w58JiACaJwBomuHPhEQATRMANMvwpwIigGYJAJr09ez8snvxutiPya0vDvz75lqI0pxn5Raa8cXwpyLr1+I6SMtDaIYdAJry5ezV1bPF8l15CNVYf3Pgm5trYUoz7ADQjM8vX30y/KlVdzB9t36NlodQPTsANOHTy1efXyyXb8pDqNb31erLu3//eVseQrUEANUz/GnNj9Xq89t//7FbRdUEAFVbb6k+Xy6tpmjOj8Xq09ubf1wTQLUEANX6cnZ+tT6vWh5Cc1wYSM0EAFXyOX/mwvcEUCsBQHV8wx8z5BsDqY4AoCqGPzMmAqiKAKAahj8BRADVEABUwfAniAigCgKAyRn+BBIBTE4AMCnDn2AigEn5WwBMaiVCASbh4MtkrP7BLgDTEQBMwvAfXN9/n97vajgigEkIAEZn+PfqwUHf90Apv7OH+D32QwQwOgHA6HzN70l+G/hTD40HwkAQHEcAMDoBwKis/o/ya+jXPiS2gsDv+TAigFEJAEZj+B+kmaG/ixg4ighgNAKAURj+e7sd/HMbAvdiwGvgaSKAUQgARiEAHtX8an9fdgX2IgAYhQBgcIb/TrNc7e/LrsCjRACDEwAMyvB/UPTg3yYE/rRaLK7+vrn2fDAoAcCgBMBvDP5HCIE/2AVgUAKAwRj+v3Ew35PXzW+8bhiMPwYEw1qv+h3ED1Ceq9vn7fYfgEHYAWAQ6au49Tnc7s21MvhPs34d/eyOU91KJfmbIwUkgxAA9M4WrgN237ymvKbon1MA0C8H6gGU59QpAeiRHQB6lbpSs+U/jvXrq3uul91znXhKQFzSKzsAcLrL9We2HZyHt36Oy+fj7QbAiewA0JvQ1b9V2US83uA0dgDgeA7GEyrPvZ0AOJIdAHoRuBoz/CvhtQfHsQMAB/hvtfra3TgAV8ROABzHDgAnS1mBfV+tvrz795+35SGVWb8Ou0B78ddy+ab805yJUE5mBwD2sF75G/51Ww/Ebvh/Lw+BJwgATpKy+u8Gy3/lLhULOh1wUd57cDQBAE+z3doQ1wTAflwDwNFCVv+Gf6O8PuFxdgBgNwfXhtkJgMcJAHiY4T8DIgB2EwAcZc7bqz8XiyvDfz7Wv8vud/qpPJwbFwNyNAEAW7o3xarcZSa632nXAMB9LgLkYDO/uMrW/0x53cLv7ADA/zmIzlj53boeAAoBAACBnALgIDPeRrX6D+E1DHfsAIADZxSnAuCOAACAQE4BsLeZbp1a/YfyeiadHQAACCQASGa1FMy1AKQTAOxlhtulhj9z5KuB2ZsAAGLZBSCZACCR1T8QTwDwpBl/cQrMcRfAaQD2IgAAIJAAII3tf/7gWgASCQAACCQAeNTMzv9b/bOTXQDSCACA+XEhIE8SAAAQSACQwvY/T3IagCQCAAACCQB28gVA0DTXAfAoAUAC2//szWkAUggAAAgkAAAgkABg7mz/czCnAUggAAAgkADgQT4BADBvAgBgvnwUkJ0EAAAEEgDMmQsAOZoLAZk7AQAAgQQAAAQSAAAQSAAAQCABAACBBAAABBIAzJWPAAI8QgAA7OC7AJgzAcAf/B0AgPkTAADz5u8B8CABAACBBAAABBIAABBIAABAIAEAAIEEAAAEEgAAEEgAAEAgAQAAgQQAAAQSAAAQSAAAQCABAACBBAAABBIAABBIAABAIAEAAIEEAAAEEgAAEEgAAEAgAQAAgQQAAAQSAAAQSAAAQCABAACBBAAABBIAABBIAABAIAEAAIEEAAAEEgAAEEgAAEAgAQAAgQQAAAQSAAAQSAAAQCABAACBBAAABBIAABBIAABAIAEAAIEEAAAEEgAAEEgAAEAgAQAAgQQAAAQSAAAQSAAAQCABAACBBAAABBIAABBIAABAIAEAAIEEAAAEEgAAEEgAAEAgAQAAgQQAAAQSAAAQSAAAQCABAACBBAAABBIAABBIAABAIAEAAIEEAAAEWpZbKvPt7PxjuTuVi3LbqstyC33wfjjB65vrD+UuFREAFdgx7Fs/4ABs/BEgomB6AmAiW0PfsAfS/IoCMTANATCye4Pf0Ae4cxsDQmBcAmAkBj/Ak4TAiATAwAx+gIMJgREIgIEY/AAnEwIDEgADKMPf4Afox6UI6J8A6JnhDzAIEdAzAdAjwx9gUCKgRwKgB+vB/2O1ev58uXxb/gmAAXTH2s/dsfaHEDidADiRVT/AJOwGnEgAnMDwB5iUCDiBvwZ4gv9WqxflLgDjuygLMY4gAI70+eWrT38tl2/KQwAm8GOxMseO5BTAEWz9A1TFqYAjCIADGf4AVRIBBxIABzD8AaomAg4gAPZk+AM0QQTsycUTABDIDsAerP4BmmIXYA92AAAgkB2AJ1j9AzTJLsAT7AAAQCA7AI+w+gdoml2AR9gBAIBAdgB2sPoHmAW7ADvYAQCAQAIAAAIJAAAI5BqABzj/DzArrgN4gB0AAAgkAAAgkAAAgEACAAACuQhwiwsAAWbJhYBb7AAAQCABAACBBAAABBIAABBIAABAIAEAAIEEAAAEEgAAEEgAAEAgAQAAgQQAAAQSAAAQSAAAQCABAACBBAAABBIAABBIAABAIAEAAIEEAAAEEgAAEEgAAEAgAQAAgQQAAAQSAAAQSAAAQCABAACBBAAABBIAABBIAABAIAEAAIEEAAAEEgAAEGhZbim+nZ1/7G4u7h5B8y7L7bG8F5iLy9c31x/KfToCYIsAoHG/DfxTD3jl/XCf9watEgBbBMAWAUCDfg39oQ9wW0HgfUJLBMAWAbBFANCQ28E/1UHtXgx4v9ACAbDFRYDQnvXgvz2YTXlAu/f/f7laLK7u/hVohQCAtkw++Letf5a/b67XuwCnXnAIjEgAQBt+rfrvHtZnsxtQ/gdUTgBA/apb9e9y7+cUAVA5AQB1a/LCJREA9RMAUK8mh/+GCIC6CQCoU9PDf0MEQL0EANRnFsN/QwRAnQQA1GVWw39DBEB9BADUY5bDf0MEQF0EANRh1sN/QwRAPQQAAAQSADC9iNX/hl0AqIMAgGlFDf8NEQDTEwAAEEgAwHQiV/8bdgFgWgIAAAIJAJhG9Op/wy4ATEcAAEAgAQAAgQQAjM/2/z1OA8A0BAAABBIAABBIAMC4bP8/wGkAGJ8AAIBAAgAAAgkAAAgkAAAgkAAAgEACAAACCQAYj48APsJHAWFcAgAAAgkAAAgkAAAgkACA8Vx8Ozv/WO6zpTw3F3ePgKEJAAAIJAAAIJAAAIBAAgAAAgkAAAgkAAAgkACAcfko4AN8BBDGJwAAIJAAAIBAAgDG5zTAPbb/YRoCAAACCQAACCQAYBpOA3Rs/8N0BAAABBIAMJ3oXQCrf5iWAACAQAIAphW5C2D1D9MTADCx1WKxLHcjGP5QBwEAE+um//vkawGAaQgAqEPEqQCrf6iHAIB6zDoCDH+oiwCAivxYrZ6Xu7PzfbV6Ue4CFRAAUJHny+XbL2fnV+XhbHw5e3X1Yrl8Ux4CFRAAUJnuTfluThGwHv7PFst35SFQCQEAFVpHwOeXrz61fE3A+mf/9PLVZ8Mf6iQAoFLr0wHdTZMXBm4u+LPtD/USAFC/piJgM/zvHgG1EgDQhouvZ+eX5X61ys9o+EMDBAA0ovZvDFz/bOufsTwEKicAACCQAACAQAIAAAIJAAAIJAAAIJAAgHZcvr65/lDuV6f8bNV/VBG4IwAAIJAAAIBAAgAAAgkAAAgkAAAgkAAAeuOTANAOAQBtqPojgEB7BAAABBIAABBIAABAIAEAAIEEAAAEEgBQv6Y+AeCjgNAGAQAAgQQAAAQSAAAQSAAAQCABAACBBADUrcm/AeCTAFA/AQAAgQQAAAQSAAAQSAAAQCABAACBBADUq8lPAGz4JADUTQAAQCABAACBBAAABBIAABBIAABAIAEAdWr6EwAbPgkA9RIAABBIAABAIAEAAIEEAAAEEgAAEEgAQH1m8QmADZ8EgDoJAAAIJAAAIJAAAIBAAgAAAgkAAAgkAAAgkAAAgEACAAACCQAACCQAoD4X387OP5b7zSv/LRd3j4BaCAAACCQAoE6z2AWw+od6CQCo1GqxWJa7zfrpGAPV8uaESnXT/33LuwDrn707wLwrD4HKCACo28XXs/PLlkJg/bOuf+burq1/qFjzW4x9c86Sit3+Tf3y9/Wrcy9SvH+o0WWt752pCIAtAoAG3IbAfWMf2HbsSHjfUDMBsEUAbBEANOqPKBiY9witEQBbBMAWAQAwSwJgi4sAASCQAACAQAIAAAIJAAAIJAAAIJAAAIBAAgAAAgkAAAgkAAAgkAAAgEACAAACCQAACCQAACCQAACAQAIAAAIJAAAIJAAAIJAAAIBAAgAAAgkAAAgkAAAgkAAAgEACAAACCQAACCQAACCQAACAQAIAAAIJAAAIJAAAIJAAAIBAAgAAAi3LLfd8Ozv/2N1c3D0CoHGXr2+uP5T7FHYAACCQAACAQAIAAAIJAAAIJAAAmDMXAO4gAB5QXiyXd48AYH4EAAAEEgAAEMgXAT3CFwIBNM35/0fYAQCAQHYAnmAXAKBJVv9PsAMAAIHsAOzBLgBAU6z+92AHAAAC2QHYk10AgCZY/e/JDgAABLIDcAC7AABVs/o/gAA4kAgAqJLhfyABcISvZ+eX3RP3vjwEYEKrxeLq75trC7MDuQbgCN3w715vAEzt+2r1xfA/jgA4Qtlm8ueCASb2Yrn8Xu5yIKcATuB6AIBJOe9/AgFwIhEAMAnD/0QCoAciAGBUhn8PBEBP1hGw6p7P7gn16QCAAayv9u+OsSvDvx8CoGd2AwAGYdXfMwEwABEA0CvDfwACYCAlAtaEAMBxbj9ubfgPQwAMTAgAHMzgH4EAGIkQAHiSwT8iATAyIQDwB4N/AgJgIvdCYE0MAGl+fZ26wT8NAVCBrRjYEAXAXPwa9huG/vQEQKV2RAFAcwx7AAAAAAAAAAAAAAAAAAAAAAAAAAAAAAAAAAAAAAAAAAAAAAAAAAAAAAAAAAAAAAAAAAAAAAAAAAAAAAAAAJiJxeJ/3SDdTv84CMsAAAAASUVORK5CYII=;" vertex="1" parent="1">
          <mxGeometry x="7110" y="-1316" width="19" height="19" as="geometry" />
        </mxCell>
        <mxCell id="pWjQ2jvJ6Y_HHa9xYU3Q-58" value="" style="shape=image;aspect=fixed;image=data:image/png,iVBORw0KGgoAAAANSUhEUgAAAgAAAAIACAYAAAD0eNT6AAAAAXNSR0IArs4c6QAAAARnQU1BAACxjwv8YQUAAAAJcEhZcwAADsMAAA7DAcdvqGQAABChSURBVHhe7d3JdhNJGoZhCahbwRu8oxjM9WMz7Vwb160UoE7ZIdoIy9aQQ0R+z3NOH0ls2iVL+b8RmZIXAAAAAAAAAAAAAAAAAAAAAAAAAAAAAAAAAAAAAAAAAAAAAAAAAAAAAAAAAAAAAAAAAAAAAAAAAAAAAAAAAHC4ZbkFZuTb2fnHcrcXr2+uP5S7wEwIAGjMnsP9otz25bLc7iQSoC0CACq2Y9j3Pdz78kckiAKolwCASjQ27PclCqBSAgAm8sDAb33Y7+tXFIgBmI4AgBFtDf2Ugf+Y33YIBAGMRwDAwAz9g9gdgJEIABiAod8LMQADEgDQo3uD39Dv120MCAHojwCAE1ntj8quAPREAMCRrPYnZ1cATiAA4EAGf3WEABxBAMCeDP7qCQE4gACAJxj8zRECsAcBADsY/M0TAvAIAQBbDP7ZEQLwAAEAhcE/e0IA7hEAxDP44wgB6AgAopXhb/BnuhQBJBMARLLqp7AbQCwBQByrfh5gN4A4AoAYVv08wW4AUQQAEaz6OYDdACIIAGbNqp8jiQBmTwAwW1b9nOLnYvHpWXcjBJgrAcAsGf70yG4AsyQAmB3DnwGIAGZHADAb68H/s3tNP1ss3pd/gt6sFour7oC5EgLMhQBgFqz6GZHdAGZBANA8w58JiACaJwBomuHPhEQATRMANMvwpwIigGYJAJr09ez8snvxutiPya0vDvz75lqI0pxn5Raa8cXwpyLr1+I6SMtDaIYdAJry5ezV1bPF8l15CNVYf3Pgm5trYUoz7ADQjM8vX30y/KlVdzB9t36NlodQPTsANOHTy1efXyyXb8pDqNb31erLu3//eVseQrUEANUz/GnNj9Xq89t//7FbRdUEAFVbb6k+Xy6tpmjOj8Xq09ubf1wTQLUEANX6cnZ+tT6vWh5Cc1wYSM0EAFXyOX/mwvcEUCsBQHV8wx8z5BsDqY4AoCqGPzMmAqiKAKAahj8BRADVEABUwfAniAigCgKAyRn+BBIBTE4AMCnDn2AigEn5WwBMaiVCASbh4MtkrP7BLgDTEQBMwvAfXN9/n97vajgigEkIAEZn+PfqwUHf90Apv7OH+D32QwQwOgHA6HzN70l+G/hTD40HwkAQHEcAMDoBwKis/o/ya+jXPiS2gsDv+TAigFEJAEZj+B+kmaG/ixg4ighgNAKAURj+e7sd/HMbAvdiwGvgaSKAUQgARiEAHtX8an9fdgX2IgAYhQBgcIb/TrNc7e/LrsCjRACDEwAMyvB/UPTg3yYE/rRaLK7+vrn2fDAoAcCgBMBvDP5HCIE/2AVgUAKAwRj+v3Ew35PXzW+8bhiMPwYEw1qv+h3ED1Ceq9vn7fYfgEHYAWAQ6au49Tnc7s21MvhPs34d/eyOU91KJfmbIwUkgxAA9M4WrgN237ymvKbon1MA0C8H6gGU59QpAeiRHQB6lbpSs+U/jvXrq3uul91znXhKQFzSKzsAcLrL9We2HZyHt36Oy+fj7QbAiewA0JvQ1b9V2US83uA0dgDgeA7GEyrPvZ0AOJIdAHoRuBoz/CvhtQfHsQMAB/hvtfra3TgAV8ROABzHDgAnS1mBfV+tvrz795+35SGVWb8Ou0B78ddy+ab805yJUE5mBwD2sF75G/51Ww/Ebvh/Lw+BJwgATpKy+u8Gy3/lLhULOh1wUd57cDQBAE+z3doQ1wTAflwDwNFCVv+Gf6O8PuFxdgBgNwfXhtkJgMcJAHiY4T8DIgB2EwAcZc7bqz8XiyvDfz7Wv8vud/qpPJwbFwNyNAEAW7o3xarcZSa632nXAMB9LgLkYDO/uMrW/0x53cLv7ADA/zmIzlj53boeAAoBAACBnALgIDPeRrX6D+E1DHfsAIADZxSnAuCOAACAQE4BsLeZbp1a/YfyeiadHQAACCQASGa1FMy1AKQTAOxlhtulhj9z5KuB2ZsAAGLZBSCZACCR1T8QTwDwpBl/cQrMcRfAaQD2IgAAIJAAII3tf/7gWgASCQAACCQAeNTMzv9b/bOTXQDSCACA+XEhIE8SAAAQSACQwvY/T3IagCQCAAACCQB28gVA0DTXAfAoAUAC2//szWkAUggAAAgkAAAgkABg7mz/czCnAUggAAAgkADgQT4BADBvAgBgvnwUkJ0EAAAEEgDMmQsAOZoLAZk7AQAAgQQAAAQSAAAQSAAAQCABAACBBAAABBIAzJWPAAI8QgAA7OC7AJgzAcAf/B0AgPkTAADz5u8B8CABAACBBAAABBIAABBIAABAIAEAAIEEAAAEEgAAEEgAAEAgAQAAgQQAAAQSAAAQSAAAQCABAACBBAAABBIAABBIAABAIAEAAIEEAAAEEgAAEEgAAEAgAQAAgQQAAAQSAAAQSAAAQCABAACBBAAABBIAABBIAABAIAEAAIEEAAAEEgAAEEgAAEAgAQAAgQQAAAQSAAAQSAAAQCABAACBBAAABBIAABBIAABAIAEAAIEEAAAEEgAAEEgAAEAgAQAAgQQAAAQSAAAQSAAAQCABAACBBAAABBIAABBIAABAIAEAAIEEAAAEEgAAEEgAAEAgAQAAgQQAAAQSAAAQSAAAQCABAACBBAAABBIAABBIAABAIAEAAIEEAAAEWpZbKvPt7PxjuTuVi3LbqstyC33wfjjB65vrD+UuFREAFdgx7Fs/4ABs/BEgomB6AmAiW0PfsAfS/IoCMTANATCye4Pf0Ae4cxsDQmBcAmAkBj/Ak4TAiATAwAx+gIMJgREIgIEY/AAnEwIDEgADKMPf4Afox6UI6J8A6JnhDzAIEdAzAdAjwx9gUCKgRwKgB+vB/2O1ev58uXxb/gmAAXTH2s/dsfaHEDidADiRVT/AJOwGnEgAnMDwB5iUCDiBvwZ4gv9WqxflLgDjuygLMY4gAI70+eWrT38tl2/KQwAm8GOxMseO5BTAEWz9A1TFqYAjCIADGf4AVRIBBxIABzD8AaomAg4gAPZk+AM0QQTsycUTABDIDsAerP4BmmIXYA92AAAgkB2AJ1j9AzTJLsAT7AAAQCA7AI+w+gdoml2AR9gBAIBAdgB2sPoHmAW7ADvYAQCAQAIAAAIJAAAI5BqABzj/DzArrgN4gB0AAAgkAAAgkAAAgEACAAACuQhwiwsAAWbJhYBb7AAAQCABAACBBAAABBIAABBIAABAIAEAAIEEAAAEEgAAEEgAAEAgAQAAgQQAAAQSAAAQSAAAQCABAACBBAAABBIAABBIAABAIAEAAIEEAAAEEgAAEEgAAEAgAQAAgQQAAAQSAAAQSAAAQCABAACBBAAABBIAABBIAABAIAEAAIEEAAAEEgAAEGhZbim+nZ1/7G4u7h5B8y7L7bG8F5iLy9c31x/KfToCYIsAoHG/DfxTD3jl/XCf9watEgBbBMAWAUCDfg39oQ9wW0HgfUJLBMAWAbBFANCQ28E/1UHtXgx4v9ACAbDFRYDQnvXgvz2YTXlAu/f/f7laLK7u/hVohQCAtkw++Letf5a/b67XuwCnXnAIjEgAQBt+rfrvHtZnsxtQ/gdUTgBA/apb9e9y7+cUAVA5AQB1a/LCJREA9RMAUK8mh/+GCIC6CQCoU9PDf0MEQL0EANRnFsN/QwRAnQQA1GVWw39DBEB9BADUY5bDf0MEQF0EANRh1sN/QwRAPQQAAAQSADC9iNX/hl0AqIMAgGlFDf8NEQDTEwAAEEgAwHQiV/8bdgFgWgIAAAIJAJhG9Op/wy4ATEcAAEAgAQAAgQQAjM/2/z1OA8A0BAAABBIAABBIAMC4bP8/wGkAGJ8AAIBAAgAAAgkAAAgkAAAgkAAAgEACAAACCQAYj48APsJHAWFcAgAAAgkAAAgkAAAgkACA8Vx8Ozv/WO6zpTw3F3ePgKEJAAAIJAAAIJAAAIBAAgAAAgkAAAgkAAAgkACAcfko4AN8BBDGJwAAIJAAAIBAAgDG5zTAPbb/YRoCAAACCQAACCQAYBpOA3Rs/8N0BAAABBIAMJ3oXQCrf5iWAACAQAIAphW5C2D1D9MTADCx1WKxLHcjGP5QBwEAE+um//vkawGAaQgAqEPEqQCrf6iHAIB6zDoCDH+oiwCAivxYrZ6Xu7PzfbV6Ue4CFRAAUJHny+XbL2fnV+XhbHw5e3X1Yrl8Ux4CFRAAUJnuTfluThGwHv7PFst35SFQCQEAFVpHwOeXrz61fE3A+mf/9PLVZ8Mf6iQAoFLr0wHdTZMXBm4u+LPtD/USAFC/piJgM/zvHgG1EgDQhouvZ+eX5X61ys9o+EMDBAA0ovZvDFz/bOufsTwEKicAACCQAACAQAIAAAIJAAAIJAAAIJAAgHZcvr65/lDuV6f8bNV/VBG4IwAAIJAAAIBAAgAAAgkAAAgkAAAgkAAAeuOTANAOAQBtqPojgEB7BAAABBIAABBIAABAIAEAAIEEAAAEEgBQv6Y+AeCjgNAGAQAAgQQAAAQSAAAQSAAAQCABAACBBADUrcm/AeCTAFA/AQAAgQQAAAQSAAAQSAAAQCABAACBBADUq8lPAGz4JADUTQAAQCABAACBBAAABBIAABBIAABAIAEAdWr6EwAbPgkA9RIAABBIAABAIAEAAIEEAAAEEgAAEEgAQH1m8QmADZ8EgDoJAAAIJAAAIJAAAIBAAgAAAgkAAAgkAAAgkAAAgEACAAACCQAACCQAoD4X387OP5b7zSv/LRd3j4BaCAAACCQAoE6z2AWw+od6CQCo1GqxWJa7zfrpGAPV8uaESnXT/33LuwDrn707wLwrD4HKCACo28XXs/PLlkJg/bOuf+burq1/qFjzW4x9c86Sit3+Tf3y9/Wrcy9SvH+o0WWt752pCIAtAoAG3IbAfWMf2HbsSHjfUDMBsEUAbBEANOqPKBiY9witEQBbBMAWAQAwSwJgi4sAASCQAACAQAIAAAIJAAAIJAAAIJAAAIBAAgAAAgkAAAgkAAAgkAAAgEACAAACCQAACCQAACCQAACAQAIAAAIJAAAIJAAAIJAAAIBAAgAAAgkAAAgkAAAgkAAAgEACAAACCQAACCQAACCQAACAQAIAAAIJAAAIJAAAIJAAAIBAAgAAAi3LLfd8Ozv/2N1c3D0CoHGXr2+uP5T7FHYAACCQAACAQAIAAAIJAAAIJAAAmDMXAO4gAB5QXiyXd48AYH4EAAAEEgAAEMgXAT3CFwIBNM35/0fYAQCAQHYAnmAXAKBJVv9PsAMAAIHsAOzBLgBAU6z+92AHAAAC2QHYk10AgCZY/e/JDgAABLIDcAC7AABVs/o/gAA4kAgAqJLhfyABcISvZ+eX3RP3vjwEYEKrxeLq75trC7MDuQbgCN3w715vAEzt+2r1xfA/jgA4Qtlm8ueCASb2Yrn8Xu5yIKcATuB6AIBJOe9/AgFwIhEAMAnD/0QCoAciAGBUhn8PBEBP1hGw6p7P7gn16QCAAayv9u+OsSvDvx8CoGd2AwAGYdXfMwEwABEA0CvDfwACYCAlAtaEAMBxbj9ubfgPQwAMTAgAHMzgH4EAGIkQAHiSwT8iATAyIQDwB4N/AgJgIvdCYE0MAGl+fZ26wT8NAVCBrRjYEAXAXPwa9huG/vQEQKV2RAFAcwx7AAAAAAAAAAAAAAAAAAAAAAAAAAAAAAAAAAAAAAAAAAAAAAAAAAAAAAAAAAAAAAAAAAAAAAAAAAAAAAAAAJiJxeJ/3SDdTv84CMsAAAAASUVORK5CYII=;" vertex="1" parent="1">
          <mxGeometry x="7080" y="-1297" width="19" height="19" as="geometry" />
        </mxCell>
        <mxCell id="pWjQ2jvJ6Y_HHa9xYU3Q-59" value="" style="endArrow=none;html=1;rounded=0;exitX=0.001;exitY=0.077;exitDx=0;exitDy=0;exitPerimeter=0;entryX=0.998;entryY=0.075;entryDx=0;entryDy=0;entryPerimeter=0;" edge="1" parent="1" source="pWjQ2jvJ6Y_HHa9xYU3Q-2" target="pWjQ2jvJ6Y_HHa9xYU3Q-2">
          <mxGeometry width="50" height="50" relative="1" as="geometry">
            <mxPoint x="6330" y="-1940" as="sourcePoint" />
            <mxPoint x="6910" y="-1935" as="targetPoint" />
          </mxGeometry>
        </mxCell>
        <mxCell id="pWjQ2jvJ6Y_HHa9xYU3Q-60" value="" style="endArrow=none;html=1;rounded=0;entryX=1;entryY=0.654;entryDx=0;entryDy=0;entryPerimeter=0;exitX=0;exitY=0.656;exitDx=0;exitDy=0;exitPerimeter=0;" edge="1" parent="1" source="pWjQ2jvJ6Y_HHa9xYU3Q-2" target="pWjQ2jvJ6Y_HHa9xYU3Q-2">
          <mxGeometry width="50" height="50" relative="1" as="geometry">
            <mxPoint x="6300" y="-1510" as="sourcePoint" />
            <mxPoint x="7302" y="-1512" as="targetPoint" />
          </mxGeometry>
        </mxCell>
        <mxCell id="pWjQ2jvJ6Y_HHa9xYU3Q-61" value="V-SUMM" style="text;html=1;align=center;verticalAlign=middle;whiteSpace=wrap;rounded=0;fontStyle=1;fontSize=23;horizontal=0;" vertex="1" parent="1">
          <mxGeometry x="6300" y="-1919.5" width="30" height="100" as="geometry" />
        </mxCell>
        <mxCell id="pWjQ2jvJ6Y_HHa9xYU3Q-62" style="rounded=0;orthogonalLoop=1;jettySize=auto;html=1;entryX=0.25;entryY=0;entryDx=0;entryDy=0;exitX=0.75;exitY=0;exitDx=0;exitDy=0;startArrow=classic;startFill=1;dashed=1;edgeStyle=orthogonalEdgeStyle;curved=1;strokeColor=#9999FF;" edge="1" parent="1" source="pWjQ2jvJ6Y_HHa9xYU3Q-9" target="pWjQ2jvJ6Y_HHa9xYU3Q-24">
          <mxGeometry relative="1" as="geometry" />
        </mxCell>
        <mxCell id="pWjQ2jvJ6Y_HHa9xYU3Q-63" value="equivalent" style="edgeLabel;html=1;align=center;verticalAlign=middle;resizable=0;points=[];fontColor=#9999FF;" vertex="1" connectable="0" parent="pWjQ2jvJ6Y_HHa9xYU3Q-62">
          <mxGeometry x="-0.0342" relative="1" as="geometry">
            <mxPoint x="1" as="offset" />
          </mxGeometry>
        </mxCell>
        <mxCell id="pWjQ2jvJ6Y_HHa9xYU3Q-64" value="&lt;span style=&quot;color: rgb(51, 51, 51); text-align: left;&quot;&gt;- CR1: For all linked CarParts: &quot;sum of all connected maxUsedPower must be less than the sum of all connected maxSuppliedPower&quot;&lt;/span&gt;&lt;div style=&quot;color: rgb(51, 51, 51); text-align: left;&quot;&gt;- CR2:&amp;nbsp;&lt;span style=&quot;background-color: initial;&quot;&gt;For all linked&amp;nbsp;&lt;/span&gt;CarParts&lt;span style=&quot;background-color: initial;&quot;&gt;:&lt;/span&gt;&lt;span style=&quot;background-color: initial;&quot;&gt;&amp;nbsp;&quot;their annotated safety level must be equal&quot;&lt;/span&gt;&lt;/div&gt;" style="text;html=1;align=center;verticalAlign=middle;whiteSpace=wrap;rounded=0;fontSize=16;fillColor=#f5f5f5;fontColor=#333333;strokeColor=#666666;" vertex="1" parent="1">
          <mxGeometry x="6330" y="-1250" width="977" height="40" as="geometry" />
        </mxCell>
        <mxCell id="pWjQ2jvJ6Y_HHa9xYU3Q-65" style="rounded=0;orthogonalLoop=1;jettySize=auto;html=1;entryX=0;entryY=0.25;entryDx=0;entryDy=0;exitX=0.75;exitY=0;exitDx=0;exitDy=0;startArrow=classic;startFill=1;dashed=1;strokeColor=#9999FF;" edge="1" parent="1" source="pWjQ2jvJ6Y_HHa9xYU3Q-6" target="pWjQ2jvJ6Y_HHa9xYU3Q-33">
          <mxGeometry relative="1" as="geometry">
            <mxPoint x="6867" y="-1303" as="sourcePoint" />
            <mxPoint x="7134" y="-1402" as="targetPoint" />
          </mxGeometry>
        </mxCell>
        <mxCell id="pWjQ2jvJ6Y_HHa9xYU3Q-66" value="equivalent" style="edgeLabel;html=1;align=center;verticalAlign=middle;resizable=0;points=[];fontColor=#9999FF;" vertex="1" connectable="0" parent="pWjQ2jvJ6Y_HHa9xYU3Q-65">
          <mxGeometry x="-0.0342" relative="1" as="geometry">
            <mxPoint x="1" as="offset" />
          </mxGeometry>
        </mxCell>
        <mxCell id="pWjQ2jvJ6Y_HHa9xYU3Q-67" value="" style="endArrow=none;html=1;rounded=0;exitX=0;exitY=0.076;exitDx=0;exitDy=0;exitPerimeter=0;" edge="1" parent="1" source="pWjQ2jvJ6Y_HHa9xYU3Q-17">
          <mxGeometry width="50" height="50" relative="1" as="geometry">
            <mxPoint x="6930" y="-1934" as="sourcePoint" />
            <mxPoint x="7330" y="-1935" as="targetPoint" />
          </mxGeometry>
        </mxCell>
        <mxCell id="pWjQ2jvJ6Y_HHa9xYU3Q-68" value="" style="endArrow=none;html=1;rounded=0;entryX=0.999;entryY=0.654;entryDx=0;entryDy=0;entryPerimeter=0;exitX=0;exitY=0.655;exitDx=0;exitDy=0;exitPerimeter=0;" edge="1" parent="1" source="pWjQ2jvJ6Y_HHa9xYU3Q-17">
          <mxGeometry width="50" height="50" relative="1" as="geometry">
            <mxPoint x="6721" y="-1511" as="sourcePoint" />
            <mxPoint x="7330" y="-1513" as="targetPoint" />
          </mxGeometry>
        </mxCell>
        <mxCell id="pWjQ2jvJ6Y_HHa9xYU3Q-69" value="" style="shape=image;aspect=fixed;image=data:image/png,iVBORw0KGgoAAAANSUhEUgAAAgAAAAIACAYAAAD0eNT6AAAAAXNSR0IArs4c6QAAAARnQU1BAACxjwv8YQUAAAAJcEhZcwAADsMAAA7DAcdvqGQAABChSURBVHhe7d3JdhNJGoZhCahbwRu8oxjM9WMz7Vwb160UoE7ZIdoIy9aQQ0R+z3NOH0ls2iVL+b8RmZIXAAAAAAAAAAAAAAAAAAAAAAAAAAAAAAAAAAAAAAAAAAAAAAAAAAAAAAAAAAAAAAAAAAAAAAAAAAAAAAAAAHC4ZbkFZuTb2fnHcrcXr2+uP5S7wEwIAGjMnsP9otz25bLc7iQSoC0CACq2Y9j3Pdz78kckiAKolwCASjQ27PclCqBSAgAm8sDAb33Y7+tXFIgBmI4AgBFtDf2Ugf+Y33YIBAGMRwDAwAz9g9gdgJEIABiAod8LMQADEgDQo3uD39Dv120MCAHojwCAE1ntj8quAPREAMCRrPYnZ1cATiAA4EAGf3WEABxBAMCeDP7qCQE4gACAJxj8zRECsAcBADsY/M0TAvAIAQBbDP7ZEQLwAAEAhcE/e0IA7hEAxDP44wgB6AgAopXhb/BnuhQBJBMARLLqp7AbQCwBQByrfh5gN4A4AoAYVv08wW4AUQQAEaz6OYDdACIIAGbNqp8jiQBmTwAwW1b9nOLnYvHpWXcjBJgrAcAsGf70yG4AsyQAmB3DnwGIAGZHADAb68H/s3tNP1ss3pd/gt6sFour7oC5EgLMhQBgFqz6GZHdAGZBANA8w58JiACaJwBomuHPhEQATRMANMvwpwIigGYJAJr09ez8snvxutiPya0vDvz75lqI0pxn5Raa8cXwpyLr1+I6SMtDaIYdAJry5ezV1bPF8l15CNVYf3Pgm5trYUoz7ADQjM8vX30y/KlVdzB9t36NlodQPTsANOHTy1efXyyXb8pDqNb31erLu3//eVseQrUEANUz/GnNj9Xq89t//7FbRdUEAFVbb6k+Xy6tpmjOj8Xq09ubf1wTQLUEANX6cnZ+tT6vWh5Cc1wYSM0EAFXyOX/mwvcEUCsBQHV8wx8z5BsDqY4AoCqGPzMmAqiKAKAahj8BRADVEABUwfAniAigCgKAyRn+BBIBTE4AMCnDn2AigEn5WwBMaiVCASbh4MtkrP7BLgDTEQBMwvAfXN9/n97vajgigEkIAEZn+PfqwUHf90Apv7OH+D32QwQwOgHA6HzN70l+G/hTD40HwkAQHEcAMDoBwKis/o/ya+jXPiS2gsDv+TAigFEJAEZj+B+kmaG/ixg4ighgNAKAURj+e7sd/HMbAvdiwGvgaSKAUQgARiEAHtX8an9fdgX2IgAYhQBgcIb/TrNc7e/LrsCjRACDEwAMyvB/UPTg3yYE/rRaLK7+vrn2fDAoAcCgBMBvDP5HCIE/2AVgUAKAwRj+v3Ew35PXzW+8bhiMPwYEw1qv+h3ED1Ceq9vn7fYfgEHYAWAQ6au49Tnc7s21MvhPs34d/eyOU91KJfmbIwUkgxAA9M4WrgN237ymvKbon1MA0C8H6gGU59QpAeiRHQB6lbpSs+U/jvXrq3uul91znXhKQFzSKzsAcLrL9We2HZyHt36Oy+fj7QbAiewA0JvQ1b9V2US83uA0dgDgeA7GEyrPvZ0AOJIdAHoRuBoz/CvhtQfHsQMAB/hvtfra3TgAV8ROABzHDgAnS1mBfV+tvrz795+35SGVWb8Ou0B78ddy+ab805yJUE5mBwD2sF75G/51Ww/Ebvh/Lw+BJwgATpKy+u8Gy3/lLhULOh1wUd57cDQBAE+z3doQ1wTAflwDwNFCVv+Gf6O8PuFxdgBgNwfXhtkJgMcJAHiY4T8DIgB2EwAcZc7bqz8XiyvDfz7Wv8vud/qpPJwbFwNyNAEAW7o3xarcZSa632nXAMB9LgLkYDO/uMrW/0x53cLv7ADA/zmIzlj53boeAAoBAACBnALgIDPeRrX6D+E1DHfsAIADZxSnAuCOAACAQE4BsLeZbp1a/YfyeiadHQAACCQASGa1FMy1AKQTAOxlhtulhj9z5KuB2ZsAAGLZBSCZACCR1T8QTwDwpBl/cQrMcRfAaQD2IgAAIJAAII3tf/7gWgASCQAACCQAeNTMzv9b/bOTXQDSCACA+XEhIE8SAAAQSACQwvY/T3IagCQCAAACCQB28gVA0DTXAfAoAUAC2//szWkAUggAAAgkAAAgkABg7mz/czCnAUggAAAgkADgQT4BADBvAgBgvnwUkJ0EAAAEEgDMmQsAOZoLAZk7AQAAgQQAAAQSAAAQSAAAQCABAACBBAAABBIAzJWPAAI8QgAA7OC7AJgzAcAf/B0AgPkTAADz5u8B8CABAACBBAAABBIAABBIAABAIAEAAIEEAAAEEgAAEEgAAEAgAQAAgQQAAAQSAAAQSAAAQCABAACBBAAABBIAABBIAABAIAEAAIEEAAAEEgAAEEgAAEAgAQAAgQQAAAQSAAAQSAAAQCABAACBBAAABBIAABBIAABAIAEAAIEEAAAEEgAAEEgAAEAgAQAAgQQAAAQSAAAQSAAAQCABAACBBAAABBIAABBIAABAIAEAAIEEAAAEEgAAEEgAAEAgAQAAgQQAAAQSAAAQSAAAQCABAACBBAAABBIAABBIAABAIAEAAIEEAAAEEgAAEEgAAEAgAQAAgQQAAAQSAAAQSAAAQCABAACBBAAABBIAABBIAABAIAEAAIEEAAAEWpZbKvPt7PxjuTuVi3LbqstyC33wfjjB65vrD+UuFREAFdgx7Fs/4ABs/BEgomB6AmAiW0PfsAfS/IoCMTANATCye4Pf0Ae4cxsDQmBcAmAkBj/Ak4TAiATAwAx+gIMJgREIgIEY/AAnEwIDEgADKMPf4Afox6UI6J8A6JnhDzAIEdAzAdAjwx9gUCKgRwKgB+vB/2O1ev58uXxb/gmAAXTH2s/dsfaHEDidADiRVT/AJOwGnEgAnMDwB5iUCDiBvwZ4gv9WqxflLgDjuygLMY4gAI70+eWrT38tl2/KQwAm8GOxMseO5BTAEWz9A1TFqYAjCIADGf4AVRIBBxIABzD8AaomAg4gAPZk+AM0QQTsycUTABDIDsAerP4BmmIXYA92AAAgkB2AJ1j9AzTJLsAT7AAAQCA7AI+w+gdoml2AR9gBAIBAdgB2sPoHmAW7ADvYAQCAQAIAAAIJAAAI5BqABzj/DzArrgN4gB0AAAgkAAAgkAAAgEACAAACuQhwiwsAAWbJhYBb7AAAQCABAACBBAAABBIAABBIAABAIAEAAIEEAAAEEgAAEEgAAEAgAQAAgQQAAAQSAAAQSAAAQCABAACBBAAABBIAABBIAABAIAEAAIEEAAAEEgAAEEgAAEAgAQAAgQQAAAQSAAAQSAAAQCABAACBBAAABBIAABBIAABAIAEAAIEEAAAEEgAAEGhZbim+nZ1/7G4u7h5B8y7L7bG8F5iLy9c31x/KfToCYIsAoHG/DfxTD3jl/XCf9watEgBbBMAWAUCDfg39oQ9wW0HgfUJLBMAWAbBFANCQ28E/1UHtXgx4v9ACAbDFRYDQnvXgvz2YTXlAu/f/f7laLK7u/hVohQCAtkw++Letf5a/b67XuwCnXnAIjEgAQBt+rfrvHtZnsxtQ/gdUTgBA/apb9e9y7+cUAVA5AQB1a/LCJREA9RMAUK8mh/+GCIC6CQCoU9PDf0MEQL0EANRnFsN/QwRAnQQA1GVWw39DBEB9BADUY5bDf0MEQF0EANRh1sN/QwRAPQQAAAQSADC9iNX/hl0AqIMAgGlFDf8NEQDTEwAAEEgAwHQiV/8bdgFgWgIAAAIJAJhG9Op/wy4ATEcAAEAgAQAAgQQAjM/2/z1OA8A0BAAABBIAABBIAMC4bP8/wGkAGJ8AAIBAAgAAAgkAAAgkAAAgkAAAgEACAAACCQAYj48APsJHAWFcAgAAAgkAAAgkAAAgkACA8Vx8Ozv/WO6zpTw3F3ePgKEJAAAIJAAAIJAAAIBAAgAAAgkAAAgkAAAgkACAcfko4AN8BBDGJwAAIJAAAIBAAgDG5zTAPbb/YRoCAAACCQAACCQAYBpOA3Rs/8N0BAAABBIAMJ3oXQCrf5iWAACAQAIAphW5C2D1D9MTADCx1WKxLHcjGP5QBwEAE+um//vkawGAaQgAqEPEqQCrf6iHAIB6zDoCDH+oiwCAivxYrZ6Xu7PzfbV6Ue4CFRAAUJHny+XbL2fnV+XhbHw5e3X1Yrl8Ux4CFRAAUJnuTfluThGwHv7PFst35SFQCQEAFVpHwOeXrz61fE3A+mf/9PLVZ8Mf6iQAoFLr0wHdTZMXBm4u+LPtD/USAFC/piJgM/zvHgG1EgDQhouvZ+eX5X61ys9o+EMDBAA0ovZvDFz/bOufsTwEKicAACCQAACAQAIAAAIJAAAIJAAAIJAAgHZcvr65/lDuV6f8bNV/VBG4IwAAIJAAAIBAAgAAAgkAAAgkAAAgkAAAeuOTANAOAQBtqPojgEB7BAAABBIAABBIAABAIAEAAIEEAAAEEgBQv6Y+AeCjgNAGAQAAgQQAAAQSAAAQSAAAQCABAACBBADUrcm/AeCTAFA/AQAAgQQAAAQSAAAQSAAAQCABAACBBADUq8lPAGz4JADUTQAAQCABAACBBAAABBIAABBIAABAIAEAdWr6EwAbPgkA9RIAABBIAABAIAEAAIEEAAAEEgAAEEgAQH1m8QmADZ8EgDoJAAAIJAAAIJAAAIBAAgAAAgkAAAgkAAAgkAAAgEACAAACCQAACCQAoD4X387OP5b7zSv/LRd3j4BaCAAACCQAoE6z2AWw+od6CQCo1GqxWJa7zfrpGAPV8uaESnXT/33LuwDrn707wLwrD4HKCACo28XXs/PLlkJg/bOuf+burq1/qFjzW4x9c86Sit3+Tf3y9/Wrcy9SvH+o0WWt752pCIAtAoAG3IbAfWMf2HbsSHjfUDMBsEUAbBEANOqPKBiY9witEQBbBMAWAQAwSwJgi4sAASCQAACAQAIAAAIJAAAIJAAAIJAAAIBAAgAAAgkAAAgkAAAgkAAAgEACAAACCQAACCQAACCQAACAQAIAAAIJAAAIJAAAIJAAAIBAAgAAAgkAAAgkAAAgkAAAgEACAAACCQAACCQAACCQAACAQAIAAAIJAAAIJAAAIJAAAIBAAgAAAi3LLfd8Ozv/2N1c3D0CoHGXr2+uP5T7FHYAACCQAACAQAIAAAIJAAAIJAAAmDMXAO4gAB5QXiyXd48AYH4EAAAEEgAAEMgXAT3CFwIBNM35/0fYAQCAQHYAnmAXAKBJVv9PsAMAAIHsAOzBLgBAU6z+92AHAAAC2QHYk10AgCZY/e/JDgAABLIDcAC7AABVs/o/gAA4kAgAqJLhfyABcISvZ+eX3RP3vjwEYEKrxeLq75trC7MDuQbgCN3w715vAEzt+2r1xfA/jgA4Qtlm8ueCASb2Yrn8Xu5yIKcATuB6AIBJOe9/AgFwIhEAMAnD/0QCoAciAGBUhn8PBEBP1hGw6p7P7gn16QCAAayv9u+OsSvDvx8CoGd2AwAGYdXfMwEwABEA0CvDfwACYCAlAtaEAMBxbj9ubfgPQwAMTAgAHMzgH4EAGIkQAHiSwT8iATAyIQDwB4N/AgJgIvdCYE0MAGl+fZ26wT8NAVCBrRjYEAXAXPwa9huG/vQEQKV2RAFAcwx7AAAAAAAAAAAAAAAAAAAAAAAAAAAAAAAAAAAAAAAAAAAAAAAAAAAAAAAAAAAAAAAAAAAAAAAAAAAAAAAAAJiJxeJ/3SDdTv84CMsAAAAASUVORK5CYII=;" vertex="1" parent="1">
          <mxGeometry x="7296.5" y="-1341.5" width="19" height="19" as="geometry" />
        </mxCell>
        <mxCell id="pWjQ2jvJ6Y_HHa9xYU3Q-81" value="" style="endArrow=diamondThin;endFill=1;endSize=24;html=1;rounded=0;entryX=1;entryY=0.5;entryDx=0;entryDy=0;exitX=0;exitY=0.5;exitDx=0;exitDy=0;" edge="1" parent="1" source="pWjQ2jvJ6Y_HHa9xYU3Q-85" target="pWjQ2jvJ6Y_HHa9xYU3Q-86">
          <mxGeometry width="160" relative="1" as="geometry">
            <mxPoint x="6865" y="-1405.5" as="sourcePoint" />
            <mxPoint x="6765" y="-1405.5" as="targetPoint" />
          </mxGeometry>
        </mxCell>
        <mxCell id="pWjQ2jvJ6Y_HHa9xYU3Q-82" value="*" style="edgeLabel;html=1;align=center;verticalAlign=middle;resizable=0;points=[];fontSize=18;" connectable="0" vertex="1" parent="pWjQ2jvJ6Y_HHa9xYU3Q-81">
          <mxGeometry x="-0.7948" y="1" relative="1" as="geometry">
            <mxPoint x="-4" y="-15" as="offset" />
          </mxGeometry>
        </mxCell>
        <mxCell id="pWjQ2jvJ6Y_HHa9xYU3Q-88" style="edgeStyle=orthogonalEdgeStyle;rounded=0;orthogonalLoop=1;jettySize=auto;html=1;entryX=0.5;entryY=1;entryDx=0;entryDy=0;endArrow=block;endFill=0;endSize=16;" edge="1" parent="1" source="pWjQ2jvJ6Y_HHa9xYU3Q-85" target="pWjQ2jvJ6Y_HHa9xYU3Q-46">
          <mxGeometry relative="1" as="geometry" />
        </mxCell>
        <mxCell id="pWjQ2jvJ6Y_HHa9xYU3Q-85" value="&lt;span style=&quot;font-weight: 700; background-color: initial;&quot;&gt;Battery&lt;/span&gt;" style="html=1;whiteSpace=wrap;" vertex="1" parent="1">
          <mxGeometry x="6795.5" y="-1570.5" width="64.5" height="50" as="geometry" />
        </mxCell>
        <mxCell id="pWjQ2jvJ6Y_HHa9xYU3Q-87" style="edgeStyle=orthogonalEdgeStyle;rounded=0;orthogonalLoop=1;jettySize=auto;html=1;entryX=0.5;entryY=1;entryDx=0;entryDy=0;endArrow=block;endFill=0;endSize=16;" edge="1" parent="1" source="pWjQ2jvJ6Y_HHa9xYU3Q-86" target="pWjQ2jvJ6Y_HHa9xYU3Q-46">
          <mxGeometry relative="1" as="geometry" />
        </mxCell>
        <mxCell id="pWjQ2jvJ6Y_HHa9xYU3Q-86" value="&lt;span style=&quot;font-weight: 700; background-color: initial;&quot;&gt;BatteryPack&lt;/span&gt;" style="html=1;whiteSpace=wrap;" vertex="1" parent="1">
          <mxGeometry x="6680" y="-1570.5" width="75" height="50" as="geometry" />
        </mxCell>
      </root>
    </mxGraphModel>
  </diagram>
</mxfile>
